<?xml version="1.0" encoding="UTF-8"?>
<svg width="32px" height="32px" viewBox="0 0 32 32" version="1.1" xmlns="http://www.w3.org/2000/svg" xmlns:xlink="http://www.w3.org/1999/xlink">
    <title>icon/Email</title>
    <g id="icon/Email" stroke="none" stroke-width="1" fill="none" fill-rule="evenodd">
        <path d="M30.6363636,11.3581818 L30.6363636,23.3181818 C30.6363636,25.6277362 28.7640999,27.5 26.4545455,27.5 L5.54545455,27.5 C3.23590014,27.5 1.36363636,25.6277362 1.36363636,23.3181818 L1.36363636,11.3581818 L13.8087273,19.0150909 C15.1525941,19.8418739 16.8474059,19.8418739 18.1912727,19.0150909 L30.6363636,11.3581818 Z M26.4545455,4.5 C28.7640999,4.5 30.6363636,6.37226377 30.6363636,8.68181818 L30.6363636,8.90206061 L17.0956364,17.2350303 C16.423703,17.6484218 15.576297,17.6484218 14.9043636,17.2350303 L1.36363636,8.90206061 L1.36363636,8.68181818 C1.36363636,6.37226377 3.23590014,4.5 5.54545455,4.5 Z" id="Combined-Shape" fill="#31261C" fill-rule="nonzero"></path>
    </g>
</svg>