<?xml version="1.0" encoding="UTF-8"?>
<svg width="32px" height="32px" viewBox="0 0 32 32" version="1.1" xmlns="http://www.w3.org/2000/svg"
    xmlns:xlink="http://www.w3.org/1999/xlink">
    <title>icon/GitHub</title>
    <g id="icon/GitHub" stroke="none" stroke-width="1" fill="none" fill-rule="evenodd">
        <path
            d="M10.7032258,25.5223408 C10.7032258,25.651373 10.5548387,25.7545988 10.3677419,25.7545988 C10.1548387,25.7739537 10.0064516,25.6707279 10.0064516,25.5223408 C10.0064516,25.3933085 10.1548387,25.2900827 10.3419355,25.2900827 C10.5354839,25.2707279 10.7032258,25.3739537 10.7032258,25.5223408 Z M8.69677419,25.2320182 C8.6516129,25.3610505 8.78064516,25.5094376 8.97419355,25.5481472 C9.14193548,25.6126634 9.33548387,25.5481472 9.37419355,25.419115 C9.41290323,25.2900827 9.29032258,25.1416956 9.09677419,25.0836311 C8.92903226,25.0384698 8.74193548,25.1029859 8.69677419,25.2320182 Z M11.5483871,25.1223408 C11.3612903,25.1675021 11.2322581,25.2900827 11.2516129,25.4384698 C11.2709677,25.5675021 11.4387097,25.651373 11.6322581,25.6062118 C11.8193548,25.5610505 11.9483871,25.4384698 11.9290323,25.3094376 C11.9096774,25.1868569 11.7354839,25.1029859 11.5483871,25.1223408 Z M15.7935484,0.399760139 C6.84516129,0.399760139 0,7.19330853 0,16.1416956 C0,23.2965343 4.50322581,29.419115 10.9354839,31.5739537 C11.7612903,31.7223408 12.0516129,31.2126634 12.0516129,30.7933085 C12.0516129,30.3933085 12.0322581,28.1868569 12.0322581,26.8320182 C12.0322581,26.8320182 7.51612903,27.7997601 6.56774194,24.9094376 C6.56774194,24.9094376 5.83225806,23.0320182 4.77419355,22.5481472 C4.77419355,22.5481472 3.29677419,21.535244 4.87741935,21.5545988 C4.87741935,21.5545988 6.48387097,21.6836311 7.36774194,23.219115 C8.78064516,25.7094376 11.1483871,24.9933085 12.0709677,24.5675021 C12.2193548,23.535244 12.6387097,22.819115 13.1032258,22.3933085 C9.49677419,21.9933085 5.85806452,21.4707279 5.85806452,15.2642763 C5.85806452,13.4900827 6.3483871,12.5997601 7.38064516,11.4642763 C7.21290323,11.0449214 6.66451613,9.31588917 7.5483871,7.08363111 C8.89677419,6.66427627 12,8.82556659 12,8.82556659 C13.2903226,8.46427627 14.6774194,8.27717949 16.0516129,8.27717949 C17.4258065,8.27717949 18.8129032,8.46427627 20.1032258,8.82556659 C20.1032258,8.82556659 23.2064516,6.65782466 24.5548387,7.08363111 C25.4387097,9.32234078 24.8903226,11.0449214 24.7225806,11.4642763 C25.7548387,12.6062118 26.3870968,13.4965343 26.3870968,15.2642763 C26.3870968,21.4900827 22.5870968,21.9868569 18.9806452,22.3933085 C19.5741935,22.9029859 20.0774194,23.8707279 20.0774194,25.3868569 C20.0774194,27.5610505 20.0580645,30.251373 20.0580645,30.7804053 C20.0580645,31.1997601 20.3548387,31.7094376 21.1741935,31.5610505 C27.6258065,29.419115 32,23.2965343 32,16.1416956 C32,7.19330853 24.7419355,0.399760139 15.7935484,0.399760139 Z M6.27096774,22.651373 C6.18709677,22.7158892 6.20645161,22.8642763 6.31612903,22.9868569 C6.41935484,23.0900827 6.56774194,23.135244 6.6516129,23.051373 C6.73548387,22.9868569 6.71612903,22.8384698 6.60645161,22.7158892 C6.50322581,22.6126634 6.35483871,22.5675021 6.27096774,22.651373 Z M5.57419355,22.1287924 C5.52903226,22.2126634 5.59354839,22.3158892 5.72258065,22.3804053 C5.82580645,22.4449214 5.95483871,22.4255666 6,22.335244 C6.04516129,22.251373 5.98064516,22.1481472 5.8516129,22.0836311 C5.72258065,22.0449214 5.61935484,22.0642763 5.57419355,22.1287924 Z M7.66451613,24.4255666 C7.56129032,24.5094376 7.6,24.7029859 7.7483871,24.8255666 C7.89677419,24.9739537 8.08387097,24.9933085 8.16774194,24.8900827 C8.2516129,24.8062118 8.21290323,24.6126634 8.08387097,24.4900827 C7.94193548,24.3416956 7.7483871,24.3223408 7.66451613,24.4255666 Z M6.92903226,23.4771795 C6.82580645,23.5416956 6.82580645,23.7094376 6.92903226,23.8578247 C7.03225806,24.0062118 7.20645161,24.0707279 7.29032258,24.0062118 C7.39354839,23.9223408 7.39354839,23.7545988 7.29032258,23.6062118 C7.2,23.4578247 7.03225806,23.3933085 6.92903226,23.4771795 Z"
            id="Shape" fill="currentcolor" fill-rule="nonzero"></path>
    </g>
</svg>