<?xml version="1.0" encoding="UTF-8"?>
<svg width="90px" height="32px" viewBox="0 0 90 32" version="1.1" xmlns="http://www.w3.org/2000/svg" xmlns:xlink="http://www.w3.org/1999/xlink">
    <title>icon/Launch</title>
    <g id="icon/Launch" stroke="none" stroke-width="1" fill="none" fill-rule="evenodd">
        <path d="M90,0 L90,32 L-5.68434189e-14,32 L-5.68434189e-14,0 L90,0 Z M40.744,14.238 L38.903,14.238 L38.903,18.1612813 C38.903,18.7469479 39.0330833,19.2638177 39.29325,19.7118906 C39.5534167,20.1599635 39.9151927,20.5111667 40.3785781,20.7655 C40.8419635,21.0198333 41.3697708,21.147 41.962,21.147 C42.5629792,21.147 43.092974,21.0215833 43.5519844,20.77075 C44.0109948,20.5199167 44.37,20.1705 44.629,19.7225 C44.888,19.2745 45.0175,18.7541667 45.0175,18.1615 L45.0175,14.238 L43.1765,14.238 L43.1765,18.116 C43.1765,18.540375 43.0703333,18.8693021 42.858,19.1027812 C42.6456667,19.3362604 42.3481667,19.453 41.9655,19.453 C41.7110208,19.453 41.4915052,19.3996979 41.3069531,19.2930938 C41.122401,19.1864896 40.9824375,19.0337292 40.8870625,18.8348125 C40.7916875,18.6358958 40.744,18.3962917 40.744,18.116 L40.744,14.238 Z M56.83,14.091 C56.144,14.091 55.5245,14.2455833 54.9715,14.55475 C54.4185,14.8639167 53.98275,15.2845 53.66425,15.8165 C53.34575,16.3485 53.1865,16.9505 53.1865,17.6225 C53.1865,18.2851667 53.3451667,18.88425 53.6625,19.41975 C53.9798333,19.95525 54.4144167,20.377 54.96625,20.685 C55.5180833,20.993 56.1358333,21.147 56.8195,21.147 C57.3561667,21.147 57.8490833,21.049 58.29825,20.853 C58.7474167,20.657 59.1411667,20.3723333 59.4795,19.999 L58.293,18.802 C58.1156667,19.0096667 57.9039167,19.1665833 57.65775,19.27275 C57.4115833,19.3789167 57.1356667,19.432 56.83,19.432 C56.4893333,19.432 56.1854167,19.3544167 55.91825,19.19925 C55.6510833,19.0440833 55.44225,18.83 55.29175,18.557 C55.14125,18.284 55.066,17.9701667 55.066,17.6155 C55.066,17.2538333 55.14125,16.9388333 55.29175,16.6705 C55.44225,16.4021667 55.6505,16.191 55.9165,16.037 C56.1825,15.883 56.487,15.806 56.83,15.806 C57.1286667,15.806 57.3999167,15.85675 57.64375,15.95825 C57.8875833,16.05975 58.0981667,16.212 58.2755,16.415 L59.462,15.218 C59.1306667,14.8516667 58.741,14.57225 58.293,14.37975 C57.845,14.18725 57.3573333,14.091 56.83,14.091 Z M34.0275,14.098 C33.4115,14.098 32.8579167,14.2531667 32.36675,14.5635 C31.8755833,14.8738333 31.48825,15.2944167 31.20475,15.82525 C30.92125,16.3560833 30.7795,16.9575 30.7795,17.6295 C30.7795,18.2945 30.92125,18.8918333 31.20475,19.4215 C31.48825,19.9511667 31.8755833,20.37 32.36675,20.678 C32.8579167,20.986 33.4115,21.14 34.0275,21.14 C34.5128333,21.14 34.9485833,21.0408333 35.33475,20.8425 C35.5278333,20.7433333 35.7012292,20.6255 35.8549375,20.489 L35.99,20.359 L35.991,21 L37.8145,21 L37.8145,14.238 L35.991,14.238 L35.99,14.888 L35.8470625,14.749 C35.7445903,14.658 35.6337569,14.5752963 35.5145625,14.5008889 L35.3295,14.3955 C34.9468333,14.1971667 34.5128333,14.098 34.0275,14.098 Z M26.0475,11.158 L24.14,11.158 L24.14,21 L30.5485,21 L30.5485,19.3025 L26.047,19.303 L26.0475,11.158 Z M49.9146562,14.098 C49.4017604,14.098 48.9426771,14.2105833 48.5374062,14.43575 C48.3637187,14.53225 48.2061429,14.6446071 48.0646786,14.7728214 L47.957,14.878 L47.9575,14.238 L46.1165,14.238 L46.1165,21 L47.9575,21 L47.9575,17.1255 C47.9575,16.8571667 48.01525,16.61975 48.13075,16.41325 C48.24625,16.20675 48.4068125,16.0463333 48.6124375,15.932 C48.8180625,15.8176667 49.0544583,15.7605 49.321625,15.7605 C49.7142083,15.7605 50.0365,15.8870833 50.2885,16.14025 C50.5405,16.3934167 50.6665,16.7218333 50.6665,17.1255 L50.6665,21 L52.5075,21 L52.5075,16.716 C52.5075,16.2633333 52.3955,15.8375 52.1715,15.4385 C51.9475,15.0395 51.6400833,14.7163333 51.24925,14.469 C50.8584167,14.2216667 50.4135521,14.098 49.9146562,14.098 Z M61.9995,10.878 L60.1585,10.878 L60.1585,21 L61.9995,21 L61.9995,17.1255 C61.9995,16.8571667 62.05725,16.61975 62.17275,16.41325 C62.28825,16.20675 62.4488125,16.0463333 62.6544375,15.932 C62.8600625,15.8176667 63.0964583,15.7605 63.363625,15.7605 C63.7562083,15.7605 64.0785,15.8870833 64.3305,16.14025 C64.5825,16.3934167 64.7085,16.7218333 64.7085,17.1255 L64.7085,21 L66.5495,21 L66.5495,16.716 C66.5495,16.2003333 66.4380833,15.7465 66.21525,15.3545 C65.9924167,14.9625 65.6826667,14.6550833 65.286,14.43225 C64.8893333,14.2094167 64.4333854,14.098 63.9181563,14.098 C63.4075938,14.098 62.9531771,14.2105833 62.5549063,14.43575 C62.3842188,14.53225 62.2294286,14.6446071 62.0905357,14.7728214 L61.999,14.864 L61.9995,10.878 Z M34.374,15.792 C34.717,15.792 35.0168333,15.8695833 35.2735,16.02475 C35.5301667,16.1799167 35.7296667,16.3945833 35.872,16.66875 C36.0143333,16.9429167 36.0855,17.2596667 36.0855,17.619 C36.0855,18.1533333 35.928,18.5914167 35.613,18.93325 C35.298,19.2750833 34.8838333,19.446 34.3705,19.446 C34.0368333,19.446 33.7410833,19.3684167 33.48325,19.21325 C33.2254167,19.0580833 33.023,18.8428333 32.876,18.5675 C32.729,18.2921667 32.6555,17.976 32.6555,17.619 C32.6555,17.262 32.7295833,16.9458333 32.87775,16.6705 C33.0259167,16.3951667 33.2283333,16.1799167 33.485,16.02475 C33.7416667,15.8695833 34.038,15.792 34.374,15.792 Z" id="Combined-Shape" fill="#31261C"></path>
    </g>
</svg>