<?xml version="1.0" encoding="UTF-8"?>
<svg width="32px" height="32px" viewBox="0 0 32 32" version="1.1" xmlns="http://www.w3.org/2000/svg"
    xmlns:xlink="http://www.w3.org/1999/xlink">
    <title>icon/Linkedin</title>
    <g id="icon/Linkedin" stroke="none" stroke-width="1" fill="none" fill-rule="evenodd">
        <path
            d="M7.16428571,32 L0.528571429,32 L0.528571429,10.6357143 L7.16428571,10.6357143 L7.16428571,32 Z M3.84285714,7.72142857 C1.72142857,7.72142857 0,5.96428571 0,3.84285714 C0,1.72050575 1.72050575,0 3.84285714,0 C5.96520854,0 7.68571429,1.72050575 7.68571429,3.84285714 C7.68571429,5.96428571 5.96428571,7.72142857 3.84285714,7.72142857 Z M31.9928571,32 L25.3714286,32 L25.3714286,21.6 C25.3714286,19.1214286 25.3214286,15.9428571 21.9214286,15.9428571 C18.4714286,15.9428571 17.9428571,18.6357143 17.9428571,21.4214286 L17.9428571,32 L11.3142857,32 L11.3142857,10.6357143 L17.6785714,10.6357143 L17.6785714,13.55 L17.7714286,13.55 C18.6571429,11.8714286 20.8214286,10.1 24.05,10.1 C30.7642857,10.1 32,14.5214286 32,20.2642857 L32,32 L31.9928571,32 Z"
            id="Shape" fill="currentcolor" fill-rule="nonzero"></path>
    </g>
</svg>