<?xml version="1.0" encoding="UTF-8"?>
<svg width="32px" height="32px" viewBox="0 0 32 32" version="1.1" xmlns="http://www.w3.org/2000/svg"
    xmlns:xlink="http://www.w3.org/1999/xlink">
    <title>icon/Twitter</title>
    <g id="icon/Twitter" stroke="none" stroke-width="1" fill="none" fill-rule="evenodd">
        <path
            d="M28.7125,9.484375 C28.73125,9.765625 28.73125,10.053125 28.73125,10.334375 C28.73125,19.003125 22.13125,28.996875 10.06875,28.996875 C6.35,28.996875 2.9,27.921875 0,26.053125 C0.525,26.115625 1.0375,26.134375 1.58125,26.134375 C4.65,26.134375 7.46875,25.096875 9.725,23.334375 C6.84375,23.271875 4.425,21.384375 3.59375,18.784375 C4,18.846875 4.40625,18.884375 4.83125,18.884375 C5.41875,18.884375 6.00625,18.803125 6.55625,18.659375 C3.55,18.053125 1.3,15.409375 1.3,12.221875 L1.3,12.140625 C2.175,12.628125 3.1875,12.934375 4.2625,12.971875 C2.49375,11.796875 1.3375,9.784375 1.3375,7.509375 C1.3375,6.290625 1.6625,5.171875 2.23125,4.196875 C5.4625,8.178125 10.3125,10.778125 15.75625,11.059375 C15.65625,10.571875 15.59375,10.065625 15.59375,9.559375 C15.59375,5.946875 18.51875,3.003125 22.15,3.003125 C24.0375,3.003125 25.74375,3.796875 26.94375,5.071875 C28.425,4.790625 29.85,4.240625 31.10625,3.490625 C30.61875,5.015625 29.58125,6.290625 28.225,7.103125 C29.54375,6.959375 30.825,6.596875 32,6.090625 C31.10625,7.390625 29.9875,8.546875 28.7125,9.484375 Z"
            id="Path" fill="currentcolor" fill-rule="nonzero"></path>
    </g>
</svg>