<?xml version="1.0" encoding="UTF-8"?>
<svg width="32px" height="32px" viewBox="0 0 32 32" version="1.1" xmlns="http://www.w3.org/2000/svg" xmlns:xlink="http://www.w3.org/1999/xlink">
    <title>icon/Youtube</title>
    <g id="icon/Youtube" stroke="none" stroke-width="1" fill="none" fill-rule="evenodd">
        <path d="M31.3321128,8.27242768 C30.9630172,6.8839253 29.8791651,5.79421457 28.5023801,5.425119 C26.006591,4.75137312 16,4.75137312 16,4.75137312 C16,4.75137312 5.99340901,4.75137312 3.49761992,5.425119 C2.12083486,5.79421457 1.03698279,6.8839253 0.667887221,8.27242768 C0,10.7857927 0,16.0234346 0,16.0234346 C0,16.0234346 0,21.2610765 0.667887221,23.7744416 C1.03698279,25.162944 2.12083486,26.2057854 3.49761992,26.574881 C5.99340901,27.2486269 16,27.2486269 16,27.2486269 C16,27.2486269 26.006591,27.2486269 28.5023801,26.574881 C29.8791651,26.2057854 30.9630172,25.1570853 31.3321128,23.7744416 C32,21.2610765 32,16.0234346 32,16.0234346 C32,16.0234346 32,10.7857927 31.3321128,8.27242768 L31.3321128,8.27242768 Z M12.7308678,20.7806664 L12.7308678,11.2662029 L21.0911754,16.0234346 L12.7308678,20.7806664 L12.7308678,20.7806664 Z" id="Shape" fill="#31261C" fill-rule="nonzero"></path>
    </g>
</svg>