<?xml version="1.0" encoding="UTF-8"?>
<svg width="2394px" height="4586px" viewBox="0 0 2394 4586" version="1.1" xmlns="http://www.w3.org/2000/svg" xmlns:xlink="http://www.w3.org/1999/xlink">
    <title>Group</title>
    <defs>
        <path d="M1138.66873,262.529264 C955.587433,337.608344 772.051797,410.906781 589.424866,487.766489 C564.539063,498.239838 511.690172,536.26196 493.634493,549.908345 C490.613277,552.191763 475.216356,562.483546 472.316392,572.717879 C472.070056,573.587227 472.149454,574.905278 472.741799,575.43752 C478.208485,580.349516 492.845365,580.739873 496.230344,580.849107 C544.930917,582.420677 568.264765,580.685836 618.465407,574.423886 C707.8269,563.277072 797.128079,551.340645 886.398032,539.057476 C1467.02123,459.166175 718.796676,560.670116 1217.68158,487.921581 C1304.27168,475.294814 1391.05367,464.901822 1477.69208,452.826581 C1530.96219,445.402053 1637.62915,425.326887 1691.54592,429.507461 C1700.46528,430.199045 1675.55094,439.923305 1667.01991,443.316147 C1603.38233,468.625177 1539.65553,493.732769 1475.22646,515.538952 C1384.49453,546.247403 1293.05904,573.499009 1201.6637,600.817142 C1178.42328,607.763719 1154.84043,612.697428 1131.38038,618.314791 C1110.07736,623.415667 1088.78498,628.633603 1067.37833,632.970941 C1057.29714,635.013555 1047.13381,636.431053 1036.95739,637.44644 C1032.16088,637.925028 1027.31846,637.956382 1022.52394,637.44644 C1021.26559,637.312603 1019.8559,636.773471 1019.04254,635.54103 C1018.1424,634.177077 1020.20857,630.474426 1026.89087,623.338649 C1032.31241,617.549193 1037.75636,611.70744 1043.73786,606.898946 C1056.34554,596.763689 1069.29218,587.275475 1082.54973,578.59474 C1100.02334,567.153435 1117.87805,556.656482 1135.86018,546.579416 C1162.86417,531.446556 1189.66377,515.501155 1217.47755,502.982077 C1368.45572,435.026284 1503.38719,376.492503 1653.06829,322.533073 C1858.84579,248.351122 1813.73979,270.544165 1938.83763,219.003932 C1939.12681,218.88479 1939.72658,218.405381 1939.48008,218.178624 C1935.23265,214.271374 1916.77819,220.260813 1914.8412,220.876109 C1847.45205,242.282635 1786.27817,268.430099 1722.12748,302.393329 C1575.81588,379.854916 1622.55167,363.128438 1400.50241,495.681697 C1324.75584,540.898935 1248.33627,584.278476 1171.72025,627.044229 C1156.8404,635.349911 1117.66855,652.342859 1099.8612,658.300713 C1091.18034,661.20509 1082.38158,663.631107 1073.50332,665.301988 C1069.9275,665.974956 1065.99097,667.091996 1062.65979,665.301988 C1059.24361,663.466311 1063.44458,657.291977 1066.79231,653.609194 C1071.61651,648.30218 1076.65353,643.238163 1082.07658,638.975199 C1089.22419,633.356591 1096.42215,627.453897 1104.3844,624.058717 C1154.90762,602.515129 1205.63583,581.472909 1257.17931,564.309702 C1288.24148,553.966466 1320.13818,548.137981 1351.83672,541.660798 C1380.81829,535.738794 1409.85093,529.363726 1439.14934,527.126506 C1445.97461,526.605329 1579.91055,508.705822 1617.2169,541.749422 C1618.51768,542.901574 1619.38377,545.152378 1619.33959,547.172087 C1619.20433,553.356589 1610.16671,566.575084 1608.79558,568.336543 C1585.78952,597.891892 1550.09574,637.823623 1525.7023,663.451967 C1500.16346,690.283704 1445.85501,741.806385 1421.95508,759.564409 C1360.48941,805.234362 1286.81603,843.056246 1218.06357,866.898831 C1179.0238,880.437388 1114.42349,899.663918 1069.28832,904.635926 C1042.86946,907.546179 993.598774,943.108406 989.832709,909.615472 L988.122399,907.975933 C987.718834,904.386886 993.48656,898.33026 1012.9653,888.722426 C1053.56014,868.699135 1094.27386,848.643007 1136.12931,833.421215 C1227.31877,800.257865 1319.81125,773.229442 1411.76267,743.689682 C1484.55362,720.305302 1559.02823,694.16394 1634.39813,691.700783 C1635.59045,691.661817 1637.78277,692.80145 1637.37598,694.232099 C1635.79593,699.789074 1632.64517,704.497936 1629.51898,708.860554 C1620.56819,721.351404 1610.98429,733.097644 1601.26848,744.620232 C1578.42196,771.715332 1554.71752,797.127374 1528.01599,818.022841 C1465.68766,866.79832 1401.13124,898.644893 1331.4085,926.653385 C1223.72595,969.910807 1106.27199,999.427469 992.862649,991.487187 C992.486177,991.460828 992.265919,990.493812 992.502355,990.119058 C993.594307,988.388302 995.046551,987.06424 996.465586,985.776495 C1000.79595,981.84678 1004.94046,977.432722 1009.727,974.488046 C1046.40907,951.921282 1082.96129,928.816799 1120.71482,909.338523 C1149.08019,894.703906 1178.22919,882.355828 1207.79303,872.29934 C1267.83183,851.876438 1444.78432,792.745669 1544.08162,772.464702 C1605.63478,759.892782 1667.35838,751.252569 1729.7631,754.485161 C1737.24672,754.872816 1759.97814,755.408542 1764.22541,769.191162 C1764.74787,770.886567 1764.32202,772.979353 1763.69148,774.613827 C1753.90932,799.97114 1726.60602,818.402421 1709.25241,829.870727 C1659.82209,862.537238 1592.92747,900.351625 1540.78255,923.601405 C1494.93865,944.041756 1322.23157,1011.71631 1274.27807,1025.01465 C1141.15579,1061.93179 1006.75091,1090.89686 873.2408,1125.45858 C836.179468,1135.05264 793.872297,1147.52481 757.651637,1165.49435 C753.149236,1167.72805 740.470992,1172.63696 745.045698,1174.61706 C756.407941,1179.53505 769.035304,1175.87876 781.031659,1175.61408 C908.626531,1172.79886 1036.21101,1169.21922 1163.78945,1165.37803 C1332.20801,1160.30722 1500.12516,1154.15861 1668.63472,1155.74574 C1775.6832,1156.754 1765.63133,1154.26644 1856.33905,1169.65967 C1865.68721,1171.24606 1898.40424,1175.28062 1913.70823,1183.68438 C1915.55011,1184.6958 1917.57057,1186.03517 1918.52227,1188.28727 C1919.0944,1189.64115 1918.27893,1191.52054 1917.52821,1192.724 C1915.84816,1195.41721 1913.6636,1197.56523 1911.47701,1199.58126 C1896.67486,1213.22877 1884.6055,1222.148 1867.55157,1232.11171 C1851.30706,1241.60251 1834.88768,1250.6485 1818.20869,1258.82069 C1710.49246,1311.59828 1595.93899,1333.11447 1482.76658,1357.16534 C1445.30754,1365.12595 1407.88579,1373.43508 1370.62842,1382.81083 C1370.30282,1382.89277 1338.79418,1391.27168 1329.57664,1398.08735 C1328.85888,1398.61808 1327.50397,1400.4752 1328.29174,1400.80699 C1368.11851,1417.58094 1403.80912,1412.38419 1448.02645,1410.97656 C1506.32551,1409.12066 1639.9385,1388.53132 1678.65783,1382.32894 C1836.47413,1357.04861 1993.78892,1326.60977 2151.82763,1303.70307 C2230.84773,1292.24961 2310.39057,1287.71787 2389.64318,1279.27615 C2391.09838,1279.12115 2392.82082,1279.1842 2393.89291,1277.9191 C2394.41642,1277.30134 2392.88739,1276.41776 2392.1826,1276.27956 C2385.85545,1275.03892 2379.46726,1274.24913 2373.07401,1273.83687 C2357.43787,1272.8286 2341.78242,1272.24364 2326.12731,1272.02008 C2299.3703,1271.63798 2272.59066,1273.31616 2245.85127,1272.02008 C2107.7832,1265.32783 1969.76489,1256.97223 1831.77397,1248.05844 C1783.1153,1244.91524 1734.51927,1240.3219 1685.92447,1235.85052 C1633.32542,1231.01069 1580.74742,1225.77982 1528.19831,1220.12535 C1488.79207,1215.8851 1449.37997,1211.6194 1410.06539,1206.16711 C1380.88497,1202.12026 1351.74149,1197.47422 1322.74843,1191.63282 C1298.10004,1186.66676 1273.6491,1180.18849 1249.20944,1173.75852 C1240.33967,1171.42491 1231.29066,1169.54359 1222.85157,1165.35034 C1211.31325,1159.61713 1198.06572,1155.71432 1189.62642,1144.15265 C1177.61617,1127.69886 1170.37531,1106.06968 1164.20618,1085.00738 C1161.97349,1077.38468 1163.68791,1068.54234 1165.16117,1060.62478 C1176.65156,998.87354 1212.09108,940.583271 1247.72052,898.210705 C1385.02464,734.920803 1562.53884,715.230893 1741.9827,700.302825 C1776.02074,697.471175 1810.19281,696.633468 1844.29309,697.688424 C2032.9429,703.524662 2093.10443,698.580379 2238.78864,727.327525 C2260.34393,731.580923 2279.47979,734.489399 2298.02006,748.763391 C2300.0921,750.35864 2301.83334,753.098571 2302.47815,756.074849 C2307.72564,780.295835 2278.11767,815.15315 2269.91281,826.791052 C2243.12468,864.787712 2214.98169,901.21194 2188.36489,939.404125 C2120.22434,1037.17831 2057.68072,1142.61489 1978.3918,1226.90506 C1935.90669,1272.06998 1886.94531,1302.87448 1830.84068,1301.21053 C1784.31825,1299.83076 1737.17108,1268.41928 1698.21353,1238.54801 C1660.64336,1209.74053 1616.2614,1172.81544 1593.75006,1123.20421 C1534.54054,992.71637 1689.38654,744.702338 1725.5698,675.637731 C1746.8854,634.951695 1772.22371,597.913884 1796.65618,560.188698 C1863.65732,456.734965 1896.62227,416.845526 1977.31526,316.362645 C2001.3695,286.409123 2113.5731,158.443424 2153.04742,93.0972984 C2164.38653,74.32644 2182.70457,36.9289583 2183.98493,9.55281035 C2184.12896,6.47319499 2185.3907,-1.69426165 2183.55518,0.313785882 C2179.34295,4.92194691 2178.45734,12.913972 2175.46377,18.8749196 C2172.50589,24.7647828 2169.3694,30.5582872 2165.73584,35.7965141 C2143.61579,67.6853243 2126.63938,88.1679125 2098.7516,113.63031 C2034.28804,172.487496 1966.37609,212.711538 1893.63596,256.796416 C1706.9164,369.959668 1503.4432,439.001648 1297.65375,462.796752 C1261.0397,467.030375 1224.20023,467.301292 1187.44295,468.202799 C1150.7128,469.103641 1113.94459,469.914242 1077.23215,468.202799 C1060.5961,467.427268 1043.958,464.91255 1027.63316,460.752867 C1013.8097,457.230551 1000.30402,451.637656 987.128336,445.243713 C981.475175,442.500328 976.212959,438.324513 971.488117,433.506607 C965.437498,427.336812 959.25861,420.844725 955.057856,412.541554 C950.406458,403.347646 947.143412,392.809747 945.468835,382.077145 C943.852452,371.71752 944.531405,360.898476 945.360312,350.388621 C945.689202,346.218578 947.271261,342.295549 948.893795,338.651515 C961.637703,310.030094 987.953454,286.012905 1013.67721,281.251029 C1037.29138,276.879669 1087.21193,267.836476 1079.7325,319.237377 C1078.2192,329.637208 1074.85238,339.543141 1071.23304,349.059264 C1035.75708,442.334268 964.362808,546.276788 910.390119,620.691015 C856.6392,694.799479 801.710386,767.507176 746.803758,840.223087 C727.323239,866.022225 707.417777,891.303429 687.242435,916.21794 C668.377496,939.514234 649.254678,962.48431 629.699624,984.834868 C616.091248,1000.38864 602.384248,1015.88148 587.784011,1029.8945 C574.760826,1042.3939 560.596358,1052.82977 546.970982,1064.2362 C545.86141,1065.16507 549.366145,1062.60779 550.23533,1061.32823 C565.255672,1039.21618 579.518433,1016.27788 594.555796,994.184672 C603.746579,980.681384 613.153969,967.404961 622.906135,954.558784 C641.082563,930.615629 659.117189,906.44102 678.32191,883.842582 C691.920207,867.841293 706.577512,853.347931 721.201201,838.893731 C748.162351,812.245059 775.087243,785.475389 803.048643,760.561426 C827.079648,739.149495 851.960171,719.292481 877.073804,700.009259 C893.906737,687.08428 911.066068,674.746697 928.812848,663.994788 C956.738802,647.075813 984.802475,630.204357 1013.95502,617.079598 C1046.73413,602.322128 1080.40128,590.767323 1114.22085,580.522307 C1134.2389,574.458207 1154.64209,569.603779 1175.18862,568.236841 C1204.26021,566.302741 1233.4751,567.82202 1262.50124,570.657377 C1274.31982,571.811849 1285.99504,575.503029 1297.27176,580.162273 C1304.01806,582.949671 1310.3108,587.573607 1316.09819,592.802233 C1319.69976,596.056082 1323.01639,600.253027 1325.04476,605.253868 C1338.01008,637.219241 1298.5785,701.390921 1285.70329,723.112359 C1263.48154,760.602086 1241.29966,798.153355 1218.10698,834.673025 C1163.33561,920.917179 1096.56318,998.800149 1029.46502,1069.02742 C939.10219,1163.60429 1024.52719,1071.8819 902.072978,1191.68267 C895.512509,1198.10098 889.608444,1205.60572 884.010543,1213.36779 C875.59253,1225.04024 892.332079,1223.12378 895.713577,1222.23016 C909.395526,1218.61446 922.981814,1214.16899 936.214062,1208.44363 C949.589827,1202.65617 962.607003,1195.49969 975.36453,1187.76661 C1007.62495,1168.21168 1039.39402,1147.35756 1071.19831,1126.62177 C1098.43271,1108.86546 1125.60681,1090.94326 1152.47276,1072.29542 C1499.1277,831.679701 1255.26447,1000.53275 1474.42773,842.732246 C1565.95479,776.831531 1657.20441,710.279267 1749.45771,646.048481 C1772.14934,630.249572 1795.55864,616.12554 1819.17237,602.705936 C1852.73021,583.635121 1886.70268,565.735891 1920.90108,548.617762 C1940.87132,538.621587 1961.16202,529.640666 1981.61708,521.393658 C2000.23735,513.886389 2019.01712,506.889686 2038.06164,501.381311 C2055.32147,496.389134 2072.83927,492.826111 2090.39105,489.932232 C2100.69618,488.233154 2111.1204,487.728724 2121.51087,487.622476 C2123.02581,487.606984 2098.32711,508.820733 2090.56468,514.818884 C2022.66687,567.28459 1953.65777,617.412236 1886.21738,670.829894 C1846.55385,702.246279 1808.17346,736.228294 1769.32595,769.263169 C1735.17045,798.308092 1701.01003,827.351188 1667.21091,857.067135 C1642.92318,878.420731 1618.7373,899.986743 1595.07837,922.460375 C1540.9865,973.842282 1487.98501,1027.07312 1433.98368,1078.60986 C1421.91713,1090.1257 1409.48698,1101.02555 1396.89947,1111.5945 C1391.94973,1115.7505 1386.42527,1118.69848 1381.41987,1122.74448 C1381.11917,1122.98754 1381.08419,1123.95597 1381.41987,1124.10707 C1391.44626,1128.62023 1405.97369,1130.62191 1415.54793,1131.86718 C1465.45719,1138.35862 1515.28563,1146.29139 1565.35197,1150.36185 C1599.55952,1153.14297 1633.89333,1152.41712 1668.17024,1152.40574 C1689.50986,1152.39865 1710.86085,1151.80919 1732.16795,1150.30646 C1773.9374,1147.36058 1838.84971,1129.05907 1884.97589,1147.25448 C1887.34078,1148.18736 1889.69074,1149.77802 1891.34397,1152.12879 C1907.32178,1174.84793 1923.271,1197.7005 1937.62652,1222.11938 C1944.95157,1234.57937 1953.57303,1266.32577 1955.57609,1280.54458 C1959.04649,1305.17938 1962.00907,1334.46241 1956.43559,1359.65788 C1948.86932,1393.8619 1914.99126,1393.54172 1893.61426,1389.87857 C1891.4452,1389.50689 1877.20303,1386.01463 1876.51116,1379.51514 C1876.43242,1378.77549 1876.8384,1377.98055 1877.29252,1377.51002 C1896.2304,1357.88799 1915.68027,1339.07749 1934.56185,1319.36731 C1944.14576,1309.36282 1953.48641,1298.97561 1962.67344,1288.38224 C2015.95701,1226.94206 2055.80736,1153.82633 2094.18498,1076.58259 C2108.4131,1047.94526 2125.3835,1012.35727 2136.4305,979.345735 C2137.1678,977.142501 2142.17845,960.777403 2140.95371,955.50595 C2138.82087,946.325931 2131.77385,943.201167 2125.35256,940.966118 C2096.77687,931.01983 2075.54222,930.798148 2043.85673,930.048782 C1943.1474,927.666992 1897.04474,930.778644 1791.75532,939.099481 C1438.00512,967.055736 1373.31553,969.150687 1077.03681,1007.63332 C1039.9253,1012.45361 641.068699,1068.09143 583.399714,1076.78753 C521.521451,1086.11837 459.960356,1098.91797 397.956982,1106.78113 C293.188483,1120.06769 160.665753,1136.49234 52.435326,1116.33587 C41.1223965,1114.22899 11.8534394,1108.27762 2.16784387,1089.40534 C-3.30948476,1078.73282 2.86090768,1062.82437 6.73011707,1054.5042 C25.7120141,1013.68641 71.0620607,966.111159 101.530768,941.226451 C151.775524,900.19005 202.955335,860.956937 254.972475,823.689221 C424.752557,702.05016 607.166267,613.034105 791.571335,535.05833 C919.983949,480.758992 1050.31695,433.466169 1181.95173,393.720088 C1256.63792,371.169183 1328.41573,353.643904 1405.24266,352.083549 C1412.93505,351.927317 1439.68346,351.64238 1440.65562,369.547964 C1443.36934,419.529741 1401.82718,509.973325 1397.38131,522.368519 C1380.88668,568.356029 1335.22399,652.79499 1316.56266,685.552512 C1262.23772,780.912854 1193.748,863.882076 1123.62322,940.14081 C1024.81246,1047.59473 922.553668,1144.18416 813.952953,1234.6541 C775.217521,1266.92269 736.334217,1298.91407 697.061523,1330.1074 C656.779926,1362.10208 616.086701,1393.25062 575.308299,1424.20366 C566.105962,1431.18873 557.351678,1439.79538 547.140277,1443.90582 C544.609427,1444.92457 548.733409,1437.40807 549.961854,1434.40646 C553.319112,1426.20328 557.029495,1418.23526 560.861824,1410.37835 C566.694117,1398.42119 572.597677,1386.50555 578.945963,1374.98425 C590.129398,1354.68778 601.048673,1334.07992 613.438658,1314.95828 C633.614571,1283.82051 655.043317,1254.02402 676.542146,1224.36267 C687.46923,1209.28687 698.885126,1194.77061 710.678889,1180.79856 C738.99633,1147.25094 767.297607,1113.62405 796.841173,1081.84462 C827.403136,1048.96973 858.349054,1016.53079 890.903873,986.934142 C1009.30924,879.287973 1137.37537,786.572139 1270.05005,710.981985 C1444.98795,611.312751 1605.09704,564.242529 1799.82069,500.234741 C1844.36785,485.591603 1889.86921,475.723927 1935.40833,467.421803 C1975.8612,460.046938 2016.71526,456.582804 2057.4958,453.258622 C2084.20552,451.081407 2111.00724,450.343037 2137.7675,450.92671 C2150.18286,451.197504 2162.59507,453.049808 2174.82132,455.817632 C2178.3108,456.607596 2181.89257,458.40425 2184.47545,461.500629 C2186.28622,463.671394 2187.32495,467.294336 2187.01921,470.440549 C2184.42476,497.138673 2157.11835,528.635062 2144.89524,544.358283 C2009.37055,718.690652 2045.6033,663.471382 1863.75763,881.9981 C1857.71685,889.257398 1852.92428,898.051295 1847.81789,906.397322 C1838.15514,922.190375 1836.24525,936.953064 1855.3146,935.914565 C1885.40461,934.275893 1914.04705,920.401761 1941.26418,904.807634 C1960.24781,893.930918 1979.08343,882.560339 1997.41791,870.000662 C2034.71503,844.450992 2070.46386,815.068279 2104.55102,783.077394 C2150.22374,740.213443 2174.58942,713.4773 2215.43466,661.125594 C2224.85263,649.054506 2234.04238,636.505991 2241.71006,622.563191 C2253.5647,601.006867 2264.29707,578.376406 2273.7979,554.998671 C2279.86378,540.07299 2284.43485,524.143779 2288.24872,508.050247 C2290.27727,499.490281 2290.75904,490.414397 2291.21789,481.490821 C2291.75124,471.118297 2292.3001,460.609037 2291.21789,450.306344 C2288.63111,425.680149 2269.26143,397.295606 2249.528,394.556475 C2246.8031,394.178241 2244.19778,398.967729 2243.19464,400.84876 C2233.29049,419.420578 2227.423,434.303987 2212.43945,447.337449 C2181.11011,474.58932 2144.80301,483.991428 2108.24946,495.482293 C2095.03932,499.634994 2081.57945,502.384387 2068.18306,505.413691 C2063.87852,506.387071 2059.53756,507.273819 2055.16908,507.48527 C2052.74052,507.602822 2050.13428,507.695892 2047.92848,506.394091 C2046.54364,505.576793 2045.86516,503.432994 2045.26752,501.641643 C2043.66092,496.826121 2042.36678,491.825331 2041.37374,486.747316 C2027.12555,413.88803 2016.6339,340.841476 1992.25225,272.08955 C1985.80623,253.912917 1979.28696,235.759411 1972.08449,218.051227 C1963.95565,198.065467 1955.32279,178.404227 1946.28225,159.066592 C1944.3623,154.959842 1942.04009,151.072805 1939.26737,147.855689 C1937.68311,146.017498 1935.42424,145.444385 1933.50268,144.238733" id="path-1"></path>
        <linearGradient x1="0.631009615%" y1="50%" x2="48.8850126%" y2="50%" id="linearGradient-3">
            <stop stop-color="#31261C" stop-opacity="0" offset="0%"></stop>
            <stop stop-color="#F8F3EC" offset="100%"></stop>
        </linearGradient>
        <path d="M1138.66873,262.529264 C955.587433,337.608344 772.051797,410.906781 589.424866,487.766489 C564.539063,498.239838 511.690172,536.26196 493.634493,549.908345 C490.613277,552.191763 475.216356,562.483546 472.316392,572.717879 C472.070056,573.587227 472.149454,574.905278 472.741799,575.43752 C478.208485,580.349516 492.845365,580.739873 496.230344,580.849107 C544.930917,582.420677 568.264765,580.685836 618.465407,574.423886 C707.8269,563.277072 797.128079,551.340645 886.398032,539.057476 C1467.02123,459.166175 718.796676,560.670116 1217.68158,487.921581 C1304.27168,475.294814 1391.05367,464.901822 1477.69208,452.826581 C1530.96219,445.402053 1637.62915,425.326887 1691.54592,429.507461 C1700.46528,430.199045 1675.55094,439.923305 1667.01991,443.316147 C1603.38233,468.625177 1539.65553,493.732769 1475.22646,515.538952 C1384.49453,546.247403 1293.05904,573.499009 1201.6637,600.817142 C1178.42328,607.763719 1154.84043,612.697428 1131.38038,618.314791 C1110.07736,623.415667 1088.78498,628.633603 1067.37833,632.970941 C1057.29714,635.013555 1047.13381,636.431053 1036.95739,637.44644 C1032.16088,637.925028 1027.31846,637.956382 1022.52394,637.44644 C1021.26559,637.312603 1019.8559,636.773471 1019.04254,635.54103 C1018.1424,634.177077 1020.20857,630.474426 1026.89087,623.338649 C1032.31241,617.549193 1037.75636,611.70744 1043.73786,606.898946 C1056.34554,596.763689 1069.29218,587.275475 1082.54973,578.59474 C1100.02334,567.153435 1117.87805,556.656482 1135.86018,546.579416 C1162.86417,531.446556 1189.66377,515.501155 1217.47755,502.982077 C1368.45572,435.026284 1503.38719,376.492503 1653.06829,322.533073 C1858.84579,248.351122 1813.73979,270.544165 1938.83763,219.003932 C1939.12681,218.88479 1939.72658,218.405381 1939.48008,218.178624 C1935.23265,214.271374 1916.77819,220.260813 1914.8412,220.876109 C1847.45205,242.282635 1786.27817,268.430099 1722.12748,302.393329 C1575.81588,379.854916 1622.55167,363.128438 1400.50241,495.681697 C1324.75584,540.898935 1248.33627,584.278476 1171.72025,627.044229 C1156.8404,635.349911 1117.66855,652.342859 1099.8612,658.300713 C1091.18034,661.20509 1082.38158,663.631107 1073.50332,665.301988 C1069.9275,665.974956 1065.99097,667.091996 1062.65979,665.301988 C1059.24361,663.466311 1063.44458,657.291977 1066.79231,653.609194 C1071.61651,648.30218 1076.65353,643.238163 1082.07658,638.975199 C1089.22419,633.356591 1096.42215,627.453897 1104.3844,624.058717 C1154.90762,602.515129 1205.63583,581.472909 1257.17931,564.309702 C1288.24148,553.966466 1320.13818,548.137981 1351.83672,541.660798 C1380.81829,535.738794 1409.85093,529.363726 1439.14934,527.126506 C1445.97461,526.605329 1579.91055,508.705822 1617.2169,541.749422 C1618.51768,542.901574 1619.38377,545.152378 1619.33959,547.172087 C1619.20433,553.356589 1610.16671,566.575084 1608.79558,568.336543 C1585.78952,597.891892 1550.09574,637.823623 1525.7023,663.451967 C1500.16346,690.283704 1445.85501,741.806385 1421.95508,759.564409 C1360.48941,805.234362 1286.81603,843.056246 1218.06357,866.898831 C1179.0238,880.437388 1114.42349,899.663918 1069.28832,904.635926 C1042.86946,907.546179 993.598774,943.108406 989.832709,909.615472 L988.122399,907.975933 C987.718834,904.386886 993.48656,898.33026 1012.9653,888.722426 C1053.56014,868.699135 1094.27386,848.643007 1136.12931,833.421215 C1227.31877,800.257865 1319.81125,773.229442 1411.76267,743.689682 C1484.55362,720.305302 1559.02823,694.16394 1634.39813,691.700783 C1635.59045,691.661817 1637.78277,692.80145 1637.37598,694.232099 C1635.79593,699.789074 1632.64517,704.497936 1629.51898,708.860554 C1620.56819,721.351404 1610.98429,733.097644 1601.26848,744.620232 C1578.42196,771.715332 1554.71752,797.127374 1528.01599,818.022841 C1465.68766,866.79832 1401.13124,898.644893 1331.4085,926.653385 C1223.72595,969.910807 1106.27199,999.427469 992.862649,991.487187 C992.486177,991.460828 992.265919,990.493812 992.502355,990.119058 C993.594307,988.388302 995.046551,987.06424 996.465586,985.776495 C1000.79595,981.84678 1004.94046,977.432722 1009.727,974.488046 C1046.40907,951.921282 1082.96129,928.816799 1120.71482,909.338523 C1149.08019,894.703906 1178.22919,882.355828 1207.79303,872.29934 C1267.83183,851.876438 1444.78432,792.745669 1544.08162,772.464702 C1605.63478,759.892782 1667.35838,751.252569 1729.7631,754.485161 C1737.24672,754.872816 1759.97814,755.408542 1764.22541,769.191162 C1764.74787,770.886567 1764.32202,772.979353 1763.69148,774.613827 C1753.90932,799.97114 1726.60602,818.402421 1709.25241,829.870727 C1659.82209,862.537238 1592.92747,900.351625 1540.78255,923.601405 C1494.93865,944.041756 1322.23157,1011.71631 1274.27807,1025.01465 C1141.15579,1061.93179 1006.75091,1090.89686 873.2408,1125.45858 C836.179468,1135.05264 793.872297,1147.52481 757.651637,1165.49435 C753.149236,1167.72805 740.470992,1172.63696 745.045698,1174.61706 C756.407941,1179.53505 769.035304,1175.87876 781.031659,1175.61408 C908.626531,1172.79886 1036.21101,1169.21922 1163.78945,1165.37803 C1332.20801,1160.30722 1500.12516,1154.15861 1668.63472,1155.74574 C1775.6832,1156.754 1765.63133,1154.26644 1856.33905,1169.65967 C1865.68721,1171.24606 1898.40424,1175.28062 1913.70823,1183.68438 C1915.55011,1184.6958 1917.57057,1186.03517 1918.52227,1188.28727 C1919.0944,1189.64115 1918.27893,1191.52054 1917.52821,1192.724 C1915.84816,1195.41721 1913.6636,1197.56523 1911.47701,1199.58126 C1896.67486,1213.22877 1884.6055,1222.148 1867.55157,1232.11171 C1851.30706,1241.60251 1834.88768,1250.6485 1818.20869,1258.82069 C1710.49246,1311.59828 1595.93899,1333.11447 1482.76658,1357.16534 C1445.30754,1365.12595 1407.88579,1373.43508 1370.62842,1382.81083 C1370.30282,1382.89277 1338.79418,1391.27168 1329.57664,1398.08735 C1328.85888,1398.61808 1327.50397,1400.4752 1328.29174,1400.80699 C1368.11851,1417.58094 1403.80912,1412.38419 1448.02645,1410.97656 C1506.32551,1409.12066 1639.9385,1388.53132 1678.65783,1382.32894 C1836.47413,1357.04861 1993.78892,1326.60977 2151.82763,1303.70307 C2230.84773,1292.24961 2310.39057,1287.71787 2389.64318,1279.27615 C2391.09838,1279.12115 2392.82082,1279.1842 2393.89291,1277.9191 C2394.41642,1277.30134 2392.88739,1276.41776 2392.1826,1276.27956 C2385.85545,1275.03892 2379.46726,1274.24913 2373.07401,1273.83687 C2357.43787,1272.8286 2341.78242,1272.24364 2326.12731,1272.02008 C2299.3703,1271.63798 2272.59066,1273.31616 2245.85127,1272.02008 C2107.7832,1265.32783 1969.76489,1256.97223 1831.77397,1248.05844 C1783.1153,1244.91524 1734.51927,1240.3219 1685.92447,1235.85052 C1633.32542,1231.01069 1580.74742,1225.77982 1528.19831,1220.12535 C1488.79207,1215.8851 1449.37997,1211.6194 1410.06539,1206.16711 C1380.88497,1202.12026 1351.74149,1197.47422 1322.74843,1191.63282 C1298.10004,1186.66676 1273.6491,1180.18849 1249.20944,1173.75852 C1240.33967,1171.42491 1231.29066,1169.54359 1222.85157,1165.35034 C1211.31325,1159.61713 1198.06572,1155.71432 1189.62642,1144.15265 C1177.61617,1127.69886 1170.37531,1106.06968 1164.20618,1085.00738 C1161.97349,1077.38468 1163.68791,1068.54234 1165.16117,1060.62478 C1176.65156,998.87354 1212.09108,940.583271 1247.72052,898.210705 C1385.02464,734.920803 1562.53884,715.230893 1741.9827,700.302825 C1776.02074,697.471175 1810.19281,696.633468 1844.29309,697.688424 C2032.9429,703.524662 2093.10443,698.580379 2238.78864,727.327525 C2260.34393,731.580923 2279.47979,734.489399 2298.02006,748.763391 C2300.0921,750.35864 2301.83334,753.098571 2302.47815,756.074849 C2307.72564,780.295835 2278.11767,815.15315 2269.91281,826.791052 C2243.12468,864.787712 2214.98169,901.21194 2188.36489,939.404125 C2120.22434,1037.17831 2057.68072,1142.61489 1978.3918,1226.90506 C1935.90669,1272.06998 1886.94531,1302.87448 1830.84068,1301.21053 C1784.31825,1299.83076 1737.17108,1268.41928 1698.21353,1238.54801 C1660.64336,1209.74053 1616.2614,1172.81544 1593.75006,1123.20421 C1534.54054,992.71637 1689.38654,744.702338 1725.5698,675.637731 C1746.8854,634.951695 1772.22371,597.913884 1796.65618,560.188698 C1863.65732,456.734965 1896.62227,416.845526 1977.31526,316.362645 C2001.3695,286.409123 2113.5731,158.443424 2153.04742,93.0972984 C2164.38653,74.32644 2182.70457,36.9289583 2183.98493,9.55281035 C2184.12896,6.47319499 2185.3907,-1.69426165 2183.55518,0.313785882 C2179.34295,4.92194691 2178.45734,12.913972 2175.46377,18.8749196 C2172.50589,24.7647828 2169.3694,30.5582872 2165.73584,35.7965141 C2143.61579,67.6853243 2126.63938,88.1679125 2098.7516,113.63031 C2034.28804,172.487496 1966.37609,212.711538 1893.63596,256.796416 C1706.9164,369.959668 1503.4432,439.001648 1297.65375,462.796752 C1261.0397,467.030375 1224.20023,467.301292 1187.44295,468.202799 C1150.7128,469.103641 1113.94459,469.914242 1077.23215,468.202799 C1060.5961,467.427268 1043.958,464.91255 1027.63316,460.752867 C1013.8097,457.230551 1000.30402,451.637656 987.128336,445.243713 C981.475175,442.500328 976.212959,438.324513 971.488117,433.506607 C965.437498,427.336812 959.25861,420.844725 955.057856,412.541554 C950.406458,403.347646 947.143412,392.809747 945.468835,382.077145 C943.852452,371.71752 944.531405,360.898476 945.360312,350.388621 C945.689202,346.218578 947.271261,342.295549 948.893795,338.651515 C961.637703,310.030094 987.953454,286.012905 1013.67721,281.251029 C1037.29138,276.879669 1087.21193,267.836476 1079.7325,319.237377 C1078.2192,329.637208 1074.85238,339.543141 1071.23304,349.059264 C1035.75708,442.334268 964.362808,546.276788 910.390119,620.691015 C856.6392,694.799479 801.710386,767.507176 746.803758,840.223087 C727.323239,866.022225 707.417777,891.303429 687.242435,916.21794 C668.377496,939.514234 649.254678,962.48431 629.699624,984.834868 C616.091248,1000.38864 602.384248,1015.88148 587.784011,1029.8945 C574.760826,1042.3939 560.596358,1052.82977 546.970982,1064.2362 C545.86141,1065.16507 549.366145,1062.60779 550.23533,1061.32823 C565.255672,1039.21618 579.518433,1016.27788 594.555796,994.184672 C603.746579,980.681384 613.153969,967.404961 622.906135,954.558784 C641.082563,930.615629 659.117189,906.44102 678.32191,883.842582 C691.920207,867.841293 706.577512,853.347931 721.201201,838.893731 C748.162351,812.245059 775.087243,785.475389 803.048643,760.561426 C827.079648,739.149495 851.960171,719.292481 877.073804,700.009259 C893.906737,687.08428 911.066068,674.746697 928.812848,663.994788 C956.738802,647.075813 984.802475,630.204357 1013.95502,617.079598 C1046.73413,602.322128 1080.40128,590.767323 1114.22085,580.522307 C1134.2389,574.458207 1154.64209,569.603779 1175.18862,568.236841 C1204.26021,566.302741 1233.4751,567.82202 1262.50124,570.657377 C1274.31982,571.811849 1285.99504,575.503029 1297.27176,580.162273 C1304.01806,582.949671 1310.3108,587.573607 1316.09819,592.802233 C1319.69976,596.056082 1323.01639,600.253027 1325.04476,605.253868 C1338.01008,637.219241 1298.5785,701.390921 1285.70329,723.112359 C1263.48154,760.602086 1241.29966,798.153355 1218.10698,834.673025 C1163.33561,920.917179 1096.56318,998.800149 1029.46502,1069.02742 C939.10219,1163.60429 1024.52719,1071.8819 902.072978,1191.68267 C895.512509,1198.10098 889.608444,1205.60572 884.010543,1213.36779 C875.59253,1225.04024 892.332079,1223.12378 895.713577,1222.23016 C909.395526,1218.61446 922.981814,1214.16899 936.214062,1208.44363 C949.589827,1202.65617 962.607003,1195.49969 975.36453,1187.76661 C1007.62495,1168.21168 1039.39402,1147.35756 1071.19831,1126.62177 C1098.43271,1108.86546 1125.60681,1090.94326 1152.47276,1072.29542 C1499.1277,831.679701 1255.26447,1000.53275 1474.42773,842.732246 C1565.95479,776.831531 1657.20441,710.279267 1749.45771,646.048481 C1772.14934,630.249572 1795.55864,616.12554 1819.17237,602.705936 C1852.73021,583.635121 1886.70268,565.735891 1920.90108,548.617762 C1940.87132,538.621587 1961.16202,529.640666 1981.61708,521.393658 C2000.23735,513.886389 2019.01712,506.889686 2038.06164,501.381311 C2055.32147,496.389134 2072.83927,492.826111 2090.39105,489.932232 C2100.69618,488.233154 2111.1204,487.728724 2121.51087,487.622476 C2123.02581,487.606984 2098.32711,508.820733 2090.56468,514.818884 C2022.66687,567.28459 1953.65777,617.412236 1886.21738,670.829894 C1846.55385,702.246279 1808.17346,736.228294 1769.32595,769.263169 C1735.17045,798.308092 1701.01003,827.351188 1667.21091,857.067135 C1642.92318,878.420731 1618.7373,899.986743 1595.07837,922.460375 C1540.9865,973.842282 1487.98501,1027.07312 1433.98368,1078.60986 C1421.91713,1090.1257 1409.48698,1101.02555 1396.89947,1111.5945 C1391.94973,1115.7505 1386.42527,1118.69848 1381.41987,1122.74448 C1381.11917,1122.98754 1381.08419,1123.95597 1381.41987,1124.10707 C1391.44626,1128.62023 1405.97369,1130.62191 1415.54793,1131.86718 C1465.45719,1138.35862 1515.28563,1146.29139 1565.35197,1150.36185 C1599.55952,1153.14297 1633.89333,1152.41712 1668.17024,1152.40574 C1689.50986,1152.39865 1710.86085,1151.80919 1732.16795,1150.30646 C1773.9374,1147.36058 1838.84971,1129.05907 1884.97589,1147.25448 C1887.34078,1148.18736 1889.69074,1149.77802 1891.34397,1152.12879 C1907.32178,1174.84793 1923.271,1197.7005 1937.62652,1222.11938 C1944.95157,1234.57937 1953.57303,1266.32577 1955.57609,1280.54458 C1959.04649,1305.17938 1962.00907,1334.46241 1956.43559,1359.65788 C1948.86932,1393.8619 1914.99126,1393.54172 1893.61426,1389.87857 C1891.4452,1389.50689 1877.20303,1386.01463 1876.51116,1379.51514 C1876.43242,1378.77549 1876.8384,1377.98055 1877.29252,1377.51002 C1896.2304,1357.88799 1915.68027,1339.07749 1934.56185,1319.36731 C1944.14576,1309.36282 1953.48641,1298.97561 1962.67344,1288.38224 C2015.95701,1226.94206 2055.80736,1153.82633 2094.18498,1076.58259 C2108.4131,1047.94526 2125.3835,1012.35727 2136.4305,979.345735 C2137.1678,977.142501 2142.17845,960.777403 2140.95371,955.50595 C2138.82087,946.325931 2131.77385,943.201167 2125.35256,940.966118 C2096.77687,931.01983 2075.54222,930.798148 2043.85673,930.048782 C1943.1474,927.666992 1897.04474,930.778644 1791.75532,939.099481 C1438.00512,967.055736 1373.31553,969.150687 1077.03681,1007.63332 C1039.9253,1012.45361 641.068699,1068.09143 583.399714,1076.78753 C521.521451,1086.11837 459.960356,1098.91797 397.956982,1106.78113 C293.188483,1120.06769 160.665753,1136.49234 52.435326,1116.33587 C41.1223965,1114.22899 11.8534394,1108.27762 2.16784387,1089.40534 C-3.30948476,1078.73282 2.86090768,1062.82437 6.73011707,1054.5042 C25.7120141,1013.68641 71.0620607,966.111159 101.530768,941.226451 C151.775524,900.19005 202.955335,860.956937 254.972475,823.689221 C424.752557,702.05016 607.166267,613.034105 791.571335,535.05833 C919.983949,480.758992 1050.31695,433.466169 1181.95173,393.720088 C1256.63792,371.169183 1328.41573,353.643904 1405.24266,352.083549 C1412.93505,351.927317 1439.68346,351.64238 1440.65562,369.547964 C1443.36934,419.529741 1401.82718,509.973325 1397.38131,522.368519 C1380.88668,568.356029 1335.22399,652.79499 1316.56266,685.552512 C1262.23772,780.912854 1193.748,863.882076 1123.62322,940.14081 C1024.81246,1047.59473 922.553668,1144.18416 813.952953,1234.6541 C775.217521,1266.92269 736.334217,1298.91407 697.061523,1330.1074 C656.779926,1362.10208 616.086701,1393.25062 575.308299,1424.20366 C566.105962,1431.18873 557.351678,1439.79538 547.140277,1443.90582 C544.609427,1444.92457 548.733409,1437.40807 549.961854,1434.40646 C553.319112,1426.20328 557.029495,1418.23526 560.861824,1410.37835 C566.694117,1398.42119 572.597677,1386.50555 578.945963,1374.98425 C590.129398,1354.68778 601.048673,1334.07992 613.438658,1314.95828 C633.614571,1283.82051 655.043317,1254.02402 676.542146,1224.36267 C687.46923,1209.28687 698.885126,1194.77061 710.678889,1180.79856 C738.99633,1147.25094 767.297607,1113.62405 796.841173,1081.84462 C827.403136,1048.96973 858.349054,1016.53079 890.903873,986.934142 C1009.30924,879.287973 1137.37537,786.572139 1270.05005,710.981985 C1444.98795,611.312751 1605.09704,564.242529 1799.82069,500.234741 C1844.36785,485.591603 1889.86921,475.723927 1935.40833,467.421803 C1975.8612,460.046938 2016.71526,456.582804 2057.4958,453.258622 C2084.20552,451.081407 2111.00724,450.343037 2137.7675,450.92671 C2150.18286,451.197504 2162.59507,453.049808 2174.82132,455.817632 C2178.3108,456.607596 2181.89257,458.40425 2184.47545,461.500629 C2186.28622,463.671394 2187.32495,467.294336 2187.01921,470.440549 C2184.42476,497.138673 2157.11835,528.635062 2144.89524,544.358283 C2009.37055,718.690652 2045.6033,663.471382 1863.75763,881.9981 C1857.71685,889.257398 1852.92428,898.051295 1847.81789,906.397322 C1838.15514,922.190375 1836.24525,936.953064 1855.3146,935.914565 C1885.40461,934.275893 1914.04705,920.401761 1941.26418,904.807634 C1960.24781,893.930918 1979.08343,882.560339 1997.41791,870.000662 C2034.71503,844.450992 2070.46386,815.068279 2104.55102,783.077394 C2150.22374,740.213443 2174.58942,713.4773 2215.43466,661.125594 C2224.85263,649.054506 2234.04238,636.505991 2241.71006,622.563191 C2253.5647,601.006867 2264.29707,578.376406 2273.7979,554.998671 C2279.86378,540.07299 2284.43485,524.143779 2288.24872,508.050247 C2290.27727,499.490281 2290.75904,490.414397 2291.21789,481.490821 C2291.75124,471.118297 2292.3001,460.609037 2291.21789,450.306344 C2288.63111,425.680149 2269.26143,397.295606 2249.528,394.556475 C2246.8031,394.178241 2244.19778,398.967729 2243.19464,400.84876 C2233.29049,419.420578 2227.423,434.303987 2212.43945,447.337449 C2181.11011,474.58932 2144.80301,483.991428 2108.24946,495.482293 C2095.03932,499.634994 2081.57945,502.384387 2068.18306,505.413691 C2063.87852,506.387071 2059.53756,507.273819 2055.16908,507.48527 C2052.74052,507.602822 2050.13428,507.695892 2047.92848,506.394091 C2046.54364,505.576793 2045.86516,503.432994 2045.26752,501.641643 C2043.66092,496.826121 2042.36678,491.825331 2041.37374,486.747316 C2027.12555,413.88803 2016.6339,340.841476 1992.25225,272.08955 C1985.80623,253.912917 1979.28696,235.759411 1972.08449,218.051227 C1963.95565,198.065467 1955.32279,178.404227 1946.28225,159.066592 C1944.3623,154.959842 1942.04009,151.072805 1939.26737,147.855689 C1937.68311,146.017498 1935.42424,145.444385 1933.50268,144.238733" id="path-4"></path>
        <path d="M1138.66873,262.529264 C955.587433,337.608344 772.051797,410.906781 589.424866,487.766489 C564.539063,498.239838 511.690172,536.26196 493.634493,549.908345 C490.613277,552.191763 475.216356,562.483546 472.316392,572.717879 C472.070056,573.587227 472.149454,574.905278 472.741799,575.43752 C478.208485,580.349516 492.845365,580.739873 496.230344,580.849107 C544.930917,582.420677 568.264765,580.685836 618.465407,574.423886 C707.8269,563.277072 797.128079,551.340645 886.398032,539.057476 C1467.02123,459.166175 718.796676,560.670116 1217.68158,487.921581 C1304.27168,475.294814 1391.05367,464.901822 1477.69208,452.826581 C1530.96219,445.402053 1637.62915,425.326887 1691.54592,429.507461 C1700.46528,430.199045 1675.55094,439.923305 1667.01991,443.316147 C1603.38233,468.625177 1539.65553,493.732769 1475.22646,515.538952 C1384.49453,546.247403 1293.05904,573.499009 1201.6637,600.817142 C1178.42328,607.763719 1154.84043,612.697428 1131.38038,618.314791 C1110.07736,623.415667 1088.78498,628.633603 1067.37833,632.970941 C1057.29714,635.013555 1047.13381,636.431053 1036.95739,637.44644 C1032.16088,637.925028 1027.31846,637.956382 1022.52394,637.44644 C1021.26559,637.312603 1019.8559,636.773471 1019.04254,635.54103 C1018.1424,634.177077 1020.20857,630.474426 1026.89087,623.338649 C1032.31241,617.549193 1037.75636,611.70744 1043.73786,606.898946 C1056.34554,596.763689 1069.29218,587.275475 1082.54973,578.59474 C1100.02334,567.153435 1117.87805,556.656482 1135.86018,546.579416 C1162.86417,531.446556 1189.66377,515.501155 1217.47755,502.982077 C1368.45572,435.026284 1503.38719,376.492503 1653.06829,322.533073 C1858.84579,248.351122 1813.73979,270.544165 1938.83763,219.003932 C1939.12681,218.88479 1939.72658,218.405381 1939.48008,218.178624 C1935.23265,214.271374 1916.77819,220.260813 1914.8412,220.876109 C1847.45205,242.282635 1786.27817,268.430099 1722.12748,302.393329 C1575.81588,379.854916 1622.55167,363.128438 1400.50241,495.681697 C1324.75584,540.898935 1248.33627,584.278476 1171.72025,627.044229 C1156.8404,635.349911 1117.66855,652.342859 1099.8612,658.300713 C1091.18034,661.20509 1082.38158,663.631107 1073.50332,665.301988 C1069.9275,665.974956 1065.99097,667.091996 1062.65979,665.301988 C1059.24361,663.466311 1063.44458,657.291977 1066.79231,653.609194 C1071.61651,648.30218 1076.65353,643.238163 1082.07658,638.975199 C1089.22419,633.356591 1096.42215,627.453897 1104.3844,624.058717 C1154.90762,602.515129 1205.63583,581.472909 1257.17931,564.309702 C1288.24148,553.966466 1320.13818,548.137981 1351.83672,541.660798 C1380.81829,535.738794 1409.85093,529.363726 1439.14934,527.126506 C1445.97461,526.605329 1579.91055,508.705822 1617.2169,541.749422 C1618.51768,542.901574 1619.38377,545.152378 1619.33959,547.172087 C1619.20433,553.356589 1610.16671,566.575084 1608.79558,568.336543 C1585.78952,597.891892 1550.09574,637.823623 1525.7023,663.451967 C1500.16346,690.283704 1445.85501,741.806385 1421.95508,759.564409 C1360.48941,805.234362 1286.81603,843.056246 1218.06357,866.898831 C1179.0238,880.437388 1114.42349,899.663918 1069.28832,904.635926 C1042.86946,907.546179 993.598774,943.108406 989.832709,909.615472 L988.122399,907.975933 C987.718834,904.386886 993.48656,898.33026 1012.9653,888.722426 C1053.56014,868.699135 1094.27386,848.643007 1136.12931,833.421215 C1227.31877,800.257865 1319.81125,773.229442 1411.76267,743.689682 C1484.55362,720.305302 1559.02823,694.16394 1634.39813,691.700783 C1635.59045,691.661817 1637.78277,692.80145 1637.37598,694.232099 C1635.79593,699.789074 1632.64517,704.497936 1629.51898,708.860554 C1620.56819,721.351404 1610.98429,733.097644 1601.26848,744.620232 C1578.42196,771.715332 1554.71752,797.127374 1528.01599,818.022841 C1465.68766,866.79832 1401.13124,898.644893 1331.4085,926.653385 C1223.72595,969.910807 1106.27199,999.427469 992.862649,991.487187 C992.486177,991.460828 992.265919,990.493812 992.502355,990.119058 C993.594307,988.388302 995.046551,987.06424 996.465586,985.776495 C1000.79595,981.84678 1004.94046,977.432722 1009.727,974.488046 C1046.40907,951.921282 1082.96129,928.816799 1120.71482,909.338523 C1149.08019,894.703906 1178.22919,882.355828 1207.79303,872.29934 C1267.83183,851.876438 1444.78432,792.745669 1544.08162,772.464702 C1605.63478,759.892782 1667.35838,751.252569 1729.7631,754.485161 C1737.24672,754.872816 1759.97814,755.408542 1764.22541,769.191162 C1764.74787,770.886567 1764.32202,772.979353 1763.69148,774.613827 C1753.90932,799.97114 1726.60602,818.402421 1709.25241,829.870727 C1659.82209,862.537238 1592.92747,900.351625 1540.78255,923.601405 C1494.93865,944.041756 1322.23157,1011.71631 1274.27807,1025.01465 C1141.15579,1061.93179 1006.75091,1090.89686 873.2408,1125.45858 C836.179468,1135.05264 793.872297,1147.52481 757.651637,1165.49435 C753.149236,1167.72805 740.470992,1172.63696 745.045698,1174.61706 C756.407941,1179.53505 769.035304,1175.87876 781.031659,1175.61408 C908.626531,1172.79886 1036.21101,1169.21922 1163.78945,1165.37803 C1332.20801,1160.30722 1500.12516,1154.15861 1668.63472,1155.74574 C1775.6832,1156.754 1765.63133,1154.26644 1856.33905,1169.65967 C1865.68721,1171.24606 1898.40424,1175.28062 1913.70823,1183.68438 C1915.55011,1184.6958 1917.57057,1186.03517 1918.52227,1188.28727 C1919.0944,1189.64115 1918.27893,1191.52054 1917.52821,1192.724 C1915.84816,1195.41721 1913.6636,1197.56523 1911.47701,1199.58126 C1896.67486,1213.22877 1884.6055,1222.148 1867.55157,1232.11171 C1851.30706,1241.60251 1834.88768,1250.6485 1818.20869,1258.82069 C1710.49246,1311.59828 1595.93899,1333.11447 1482.76658,1357.16534 C1445.30754,1365.12595 1407.88579,1373.43508 1370.62842,1382.81083 C1370.30282,1382.89277 1338.79418,1391.27168 1329.57664,1398.08735 C1328.85888,1398.61808 1327.50397,1400.4752 1328.29174,1400.80699 C1368.11851,1417.58094 1403.80912,1412.38419 1448.02645,1410.97656 C1506.32551,1409.12066 1639.9385,1388.53132 1678.65783,1382.32894 C1836.47413,1357.04861 1993.78892,1326.60977 2151.82763,1303.70307 C2230.84773,1292.24961 2310.39057,1287.71787 2389.64318,1279.27615 C2391.09838,1279.12115 2392.82082,1279.1842 2393.89291,1277.9191 C2394.41642,1277.30134 2392.88739,1276.41776 2392.1826,1276.27956 C2385.85545,1275.03892 2379.46726,1274.24913 2373.07401,1273.83687 C2357.43787,1272.8286 2341.78242,1272.24364 2326.12731,1272.02008 C2299.3703,1271.63798 2272.59066,1273.31616 2245.85127,1272.02008 C2107.7832,1265.32783 1969.76489,1256.97223 1831.77397,1248.05844 C1783.1153,1244.91524 1734.51927,1240.3219 1685.92447,1235.85052 C1633.32542,1231.01069 1580.74742,1225.77982 1528.19831,1220.12535 C1488.79207,1215.8851 1449.37997,1211.6194 1410.06539,1206.16711 C1380.88497,1202.12026 1351.74149,1197.47422 1322.74843,1191.63282 C1298.10004,1186.66676 1273.6491,1180.18849 1249.20944,1173.75852 C1240.33967,1171.42491 1231.29066,1169.54359 1222.85157,1165.35034 C1211.31325,1159.61713 1198.06572,1155.71432 1189.62642,1144.15265 C1177.61617,1127.69886 1170.37531,1106.06968 1164.20618,1085.00738 C1161.97349,1077.38468 1163.68791,1068.54234 1165.16117,1060.62478 C1176.65156,998.87354 1212.09108,940.583271 1247.72052,898.210705 C1385.02464,734.920803 1562.53884,715.230893 1741.9827,700.302825 C1776.02074,697.471175 1810.19281,696.633468 1844.29309,697.688424 C2032.9429,703.524662 2093.10443,698.580379 2238.78864,727.327525 C2260.34393,731.580923 2279.47979,734.489399 2298.02006,748.763391 C2300.0921,750.35864 2301.83334,753.098571 2302.47815,756.074849 C2307.72564,780.295835 2278.11767,815.15315 2269.91281,826.791052 C2243.12468,864.787712 2214.98169,901.21194 2188.36489,939.404125 C2120.22434,1037.17831 2057.68072,1142.61489 1978.3918,1226.90506 C1935.90669,1272.06998 1886.94531,1302.87448 1830.84068,1301.21053 C1784.31825,1299.83076 1737.17108,1268.41928 1698.21353,1238.54801 C1660.64336,1209.74053 1616.2614,1172.81544 1593.75006,1123.20421 C1534.54054,992.71637 1689.38654,744.702338 1725.5698,675.637731 C1746.8854,634.951695 1772.22371,597.913884 1796.65618,560.188698 C1863.65732,456.734965 1896.62227,416.845526 1977.31526,316.362645 C2001.3695,286.409123 2113.5731,158.443424 2153.04742,93.0972984 C2164.38653,74.32644 2182.70457,36.9289583 2183.98493,9.55281035 C2184.12896,6.47319499 2185.3907,-1.69426165 2183.55518,0.313785882 C2179.34295,4.92194691 2178.45734,12.913972 2175.46377,18.8749196 C2172.50589,24.7647828 2169.3694,30.5582872 2165.73584,35.7965141 C2143.61579,67.6853243 2126.63938,88.1679125 2098.7516,113.63031 C2034.28804,172.487496 1966.37609,212.711538 1893.63596,256.796416 C1706.9164,369.959668 1503.4432,439.001648 1297.65375,462.796752 C1261.0397,467.030375 1224.20023,467.301292 1187.44295,468.202799 C1150.7128,469.103641 1113.94459,469.914242 1077.23215,468.202799 C1060.5961,467.427268 1043.958,464.91255 1027.63316,460.752867 C1013.8097,457.230551 1000.30402,451.637656 987.128336,445.243713 C981.475175,442.500328 976.212959,438.324513 971.488117,433.506607 C965.437498,427.336812 959.25861,420.844725 955.057856,412.541554 C950.406458,403.347646 947.143412,392.809747 945.468835,382.077145 C943.852452,371.71752 944.531405,360.898476 945.360312,350.388621 C945.689202,346.218578 947.271261,342.295549 948.893795,338.651515 C961.637703,310.030094 987.953454,286.012905 1013.67721,281.251029 C1037.29138,276.879669 1087.21193,267.836476 1079.7325,319.237377 C1078.2192,329.637208 1074.85238,339.543141 1071.23304,349.059264 C1035.75708,442.334268 964.362808,546.276788 910.390119,620.691015 C856.6392,694.799479 801.710386,767.507176 746.803758,840.223087 C727.323239,866.022225 707.417777,891.303429 687.242435,916.21794 C668.377496,939.514234 649.254678,962.48431 629.699624,984.834868 C616.091248,1000.38864 602.384248,1015.88148 587.784011,1029.8945 C574.760826,1042.3939 560.596358,1052.82977 546.970982,1064.2362 C545.86141,1065.16507 549.366145,1062.60779 550.23533,1061.32823 C565.255672,1039.21618 579.518433,1016.27788 594.555796,994.184672 C603.746579,980.681384 613.153969,967.404961 622.906135,954.558784 C641.082563,930.615629 659.117189,906.44102 678.32191,883.842582 C691.920207,867.841293 706.577512,853.347931 721.201201,838.893731 C748.162351,812.245059 775.087243,785.475389 803.048643,760.561426 C827.079648,739.149495 851.960171,719.292481 877.073804,700.009259 C893.906737,687.08428 911.066068,674.746697 928.812848,663.994788 C956.738802,647.075813 984.802475,630.204357 1013.95502,617.079598 C1046.73413,602.322128 1080.40128,590.767323 1114.22085,580.522307 C1134.2389,574.458207 1154.64209,569.603779 1175.18862,568.236841 C1204.26021,566.302741 1233.4751,567.82202 1262.50124,570.657377 C1274.31982,571.811849 1285.99504,575.503029 1297.27176,580.162273 C1304.01806,582.949671 1310.3108,587.573607 1316.09819,592.802233 C1319.69976,596.056082 1323.01639,600.253027 1325.04476,605.253868 C1338.01008,637.219241 1298.5785,701.390921 1285.70329,723.112359 C1263.48154,760.602086 1241.29966,798.153355 1218.10698,834.673025 C1163.33561,920.917179 1096.56318,998.800149 1029.46502,1069.02742 C939.10219,1163.60429 1024.52719,1071.8819 902.072978,1191.68267 C895.512509,1198.10098 889.608444,1205.60572 884.010543,1213.36779 C875.59253,1225.04024 892.332079,1223.12378 895.713577,1222.23016 C909.395526,1218.61446 922.981814,1214.16899 936.214062,1208.44363 C949.589827,1202.65617 962.607003,1195.49969 975.36453,1187.76661 C1007.62495,1168.21168 1039.39402,1147.35756 1071.19831,1126.62177 C1098.43271,1108.86546 1125.60681,1090.94326 1152.47276,1072.29542 C1499.1277,831.679701 1255.26447,1000.53275 1474.42773,842.732246 C1565.95479,776.831531 1657.20441,710.279267 1749.45771,646.048481 C1772.14934,630.249572 1795.55864,616.12554 1819.17237,602.705936 C1852.73021,583.635121 1886.70268,565.735891 1920.90108,548.617762 C1940.87132,538.621587 1961.16202,529.640666 1981.61708,521.393658 C2000.23735,513.886389 2019.01712,506.889686 2038.06164,501.381311 C2055.32147,496.389134 2072.83927,492.826111 2090.39105,489.932232 C2100.69618,488.233154 2111.1204,487.728724 2121.51087,487.622476 C2123.02581,487.606984 2098.32711,508.820733 2090.56468,514.818884 C2022.66687,567.28459 1953.65777,617.412236 1886.21738,670.829894 C1846.55385,702.246279 1808.17346,736.228294 1769.32595,769.263169 C1735.17045,798.308092 1701.01003,827.351188 1667.21091,857.067135 C1642.92318,878.420731 1618.7373,899.986743 1595.07837,922.460375 C1540.9865,973.842282 1487.98501,1027.07312 1433.98368,1078.60986 C1421.91713,1090.1257 1409.48698,1101.02555 1396.89947,1111.5945 C1391.94973,1115.7505 1386.42527,1118.69848 1381.41987,1122.74448 C1381.11917,1122.98754 1381.08419,1123.95597 1381.41987,1124.10707 C1391.44626,1128.62023 1405.97369,1130.62191 1415.54793,1131.86718 C1465.45719,1138.35862 1515.28563,1146.29139 1565.35197,1150.36185 C1599.55952,1153.14297 1633.89333,1152.41712 1668.17024,1152.40574 C1689.50986,1152.39865 1710.86085,1151.80919 1732.16795,1150.30646 C1773.9374,1147.36058 1838.84971,1129.05907 1884.97589,1147.25448 C1887.34078,1148.18736 1889.69074,1149.77802 1891.34397,1152.12879 C1907.32178,1174.84793 1923.271,1197.7005 1937.62652,1222.11938 C1944.95157,1234.57937 1953.57303,1266.32577 1955.57609,1280.54458 C1959.04649,1305.17938 1962.00907,1334.46241 1956.43559,1359.65788 C1948.86932,1393.8619 1914.99126,1393.54172 1893.61426,1389.87857 C1891.4452,1389.50689 1877.20303,1386.01463 1876.51116,1379.51514 C1876.43242,1378.77549 1876.8384,1377.98055 1877.29252,1377.51002 C1896.2304,1357.88799 1915.68027,1339.07749 1934.56185,1319.36731 C1944.14576,1309.36282 1953.48641,1298.97561 1962.67344,1288.38224 C2015.95701,1226.94206 2055.80736,1153.82633 2094.18498,1076.58259 C2108.4131,1047.94526 2125.3835,1012.35727 2136.4305,979.345735 C2137.1678,977.142501 2142.17845,960.777403 2140.95371,955.50595 C2138.82087,946.325931 2131.77385,943.201167 2125.35256,940.966118 C2096.77687,931.01983 2075.54222,930.798148 2043.85673,930.048782 C1943.1474,927.666992 1897.04474,930.778644 1791.75532,939.099481 C1438.00512,967.055736 1373.31553,969.150687 1077.03681,1007.63332 C1039.9253,1012.45361 641.068699,1068.09143 583.399714,1076.78753 C521.521451,1086.11837 459.960356,1098.91797 397.956982,1106.78113 C293.188483,1120.06769 160.665753,1136.49234 52.435326,1116.33587 C41.1223965,1114.22899 11.8534394,1108.27762 2.16784387,1089.40534 C-3.30948476,1078.73282 2.86090768,1062.82437 6.73011707,1054.5042 C25.7120141,1013.68641 71.0620607,966.111159 101.530768,941.226451 C151.775524,900.19005 202.955335,860.956937 254.972475,823.689221 C424.752557,702.05016 607.166267,613.034105 791.571335,535.05833 C919.983949,480.758992 1050.31695,433.466169 1181.95173,393.720088 C1256.63792,371.169183 1328.41573,353.643904 1405.24266,352.083549 C1412.93505,351.927317 1439.68346,351.64238 1440.65562,369.547964 C1443.36934,419.529741 1401.82718,509.973325 1397.38131,522.368519 C1380.88668,568.356029 1335.22399,652.79499 1316.56266,685.552512 C1262.23772,780.912854 1193.748,863.882076 1123.62322,940.14081 C1024.81246,1047.59473 922.553668,1144.18416 813.952953,1234.6541 C775.217521,1266.92269 736.334217,1298.91407 697.061523,1330.1074 C656.779926,1362.10208 616.086701,1393.25062 575.308299,1424.20366 C566.105962,1431.18873 557.351678,1439.79538 547.140277,1443.90582 C544.609427,1444.92457 548.733409,1437.40807 549.961854,1434.40646 C553.319112,1426.20328 557.029495,1418.23526 560.861824,1410.37835 C566.694117,1398.42119 572.597677,1386.50555 578.945963,1374.98425 C590.129398,1354.68778 601.048673,1334.07992 613.438658,1314.95828 C633.614571,1283.82051 655.043317,1254.02402 676.542146,1224.36267 C687.46923,1209.28687 698.885126,1194.77061 710.678889,1180.79856 C738.99633,1147.25094 767.297607,1113.62405 796.841173,1081.84462 C827.403136,1048.96973 858.349054,1016.53079 890.903873,986.934142 C1009.30924,879.287973 1137.37537,786.572139 1270.05005,710.981985 C1444.98795,611.312751 1605.09704,564.242529 1799.82069,500.234741 C1844.36785,485.591603 1889.86921,475.723927 1935.40833,467.421803 C1975.8612,460.046938 2016.71526,456.582804 2057.4958,453.258622 C2084.20552,451.081407 2111.00724,450.343037 2137.7675,450.92671 C2150.18286,451.197504 2162.59507,453.049808 2174.82132,455.817632 C2178.3108,456.607596 2181.89257,458.40425 2184.47545,461.500629 C2186.28622,463.671394 2187.32495,467.294336 2187.01921,470.440549 C2184.42476,497.138673 2157.11835,528.635062 2144.89524,544.358283 C2009.37055,718.690652 2045.6033,663.471382 1863.75763,881.9981 C1857.71685,889.257398 1852.92428,898.051295 1847.81789,906.397322 C1838.15514,922.190375 1836.24525,936.953064 1855.3146,935.914565 C1885.40461,934.275893 1914.04705,920.401761 1941.26418,904.807634 C1960.24781,893.930918 1979.08343,882.560339 1997.41791,870.000662 C2034.71503,844.450992 2070.46386,815.068279 2104.55102,783.077394 C2150.22374,740.213443 2174.58942,713.4773 2215.43466,661.125594 C2224.85263,649.054506 2234.04238,636.505991 2241.71006,622.563191 C2253.5647,601.006867 2264.29707,578.376406 2273.7979,554.998671 C2279.86378,540.07299 2284.43485,524.143779 2288.24872,508.050247 C2290.27727,499.490281 2290.75904,490.414397 2291.21789,481.490821 C2291.75124,471.118297 2292.3001,460.609037 2291.21789,450.306344 C2288.63111,425.680149 2269.26143,397.295606 2249.528,394.556475 C2246.8031,394.178241 2244.19778,398.967729 2243.19464,400.84876 C2233.29049,419.420578 2227.423,434.303987 2212.43945,447.337449 C2181.11011,474.58932 2144.80301,483.991428 2108.24946,495.482293 C2095.03932,499.634994 2081.57945,502.384387 2068.18306,505.413691 C2063.87852,506.387071 2059.53756,507.273819 2055.16908,507.48527 C2052.74052,507.602822 2050.13428,507.695892 2047.92848,506.394091 C2046.54364,505.576793 2045.86516,503.432994 2045.26752,501.641643 C2043.66092,496.826121 2042.36678,491.825331 2041.37374,486.747316 C2027.12555,413.88803 2016.6339,340.841476 1992.25225,272.08955 C1985.80623,253.912917 1979.28696,235.759411 1972.08449,218.051227 C1963.95565,198.065467 1955.32279,178.404227 1946.28225,159.066592 C1944.3623,154.959842 1942.04009,151.072805 1939.26737,147.855689 C1937.68311,146.017498 1935.42424,145.444385 1933.50268,144.238733" id="path-6"></path>
        <path d="M1138.66873,262.529264 C955.587433,337.608344 772.051797,410.906781 589.424866,487.766489 C564.539063,498.239838 511.690172,536.26196 493.634493,549.908345 C490.613277,552.191763 475.216356,562.483546 472.316392,572.717879 C472.070056,573.587227 472.149454,574.905278 472.741799,575.43752 C478.208485,580.349516 492.845365,580.739873 496.230344,580.849107 C544.930917,582.420677 568.264765,580.685836 618.465407,574.423886 C707.8269,563.277072 797.128079,551.340645 886.398032,539.057476 C1467.02123,459.166175 718.796676,560.670116 1217.68158,487.921581 C1304.27168,475.294814 1391.05367,464.901822 1477.69208,452.826581 C1530.96219,445.402053 1637.62915,425.326887 1691.54592,429.507461 C1700.46528,430.199045 1675.55094,439.923305 1667.01991,443.316147 C1603.38233,468.625177 1539.65553,493.732769 1475.22646,515.538952 C1384.49453,546.247403 1293.05904,573.499009 1201.6637,600.817142 C1178.42328,607.763719 1154.84043,612.697428 1131.38038,618.314791 C1110.07736,623.415667 1088.78498,628.633603 1067.37833,632.970941 C1057.29714,635.013555 1047.13381,636.431053 1036.95739,637.44644 C1032.16088,637.925028 1027.31846,637.956382 1022.52394,637.44644 C1021.26559,637.312603 1019.8559,636.773471 1019.04254,635.54103 C1018.1424,634.177077 1020.20857,630.474426 1026.89087,623.338649 C1032.31241,617.549193 1037.75636,611.70744 1043.73786,606.898946 C1056.34554,596.763689 1069.29218,587.275475 1082.54973,578.59474 C1100.02334,567.153435 1117.87805,556.656482 1135.86018,546.579416 C1162.86417,531.446556 1189.66377,515.501155 1217.47755,502.982077 C1368.45572,435.026284 1503.38719,376.492503 1653.06829,322.533073 C1858.84579,248.351122 1813.73979,270.544165 1938.83763,219.003932 C1939.12681,218.88479 1939.72658,218.405381 1939.48008,218.178624 C1935.23265,214.271374 1916.77819,220.260813 1914.8412,220.876109 C1847.45205,242.282635 1786.27817,268.430099 1722.12748,302.393329 C1575.81588,379.854916 1622.55167,363.128438 1400.50241,495.681697 C1324.75584,540.898935 1248.33627,584.278476 1171.72025,627.044229 C1156.8404,635.349911 1117.66855,652.342859 1099.8612,658.300713 C1091.18034,661.20509 1082.38158,663.631107 1073.50332,665.301988 C1069.9275,665.974956 1065.99097,667.091996 1062.65979,665.301988 C1059.24361,663.466311 1063.44458,657.291977 1066.79231,653.609194 C1071.61651,648.30218 1076.65353,643.238163 1082.07658,638.975199 C1089.22419,633.356591 1096.42215,627.453897 1104.3844,624.058717 C1154.90762,602.515129 1205.63583,581.472909 1257.17931,564.309702 C1288.24148,553.966466 1320.13818,548.137981 1351.83672,541.660798 C1380.81829,535.738794 1409.85093,529.363726 1439.14934,527.126506 C1445.97461,526.605329 1579.91055,508.705822 1617.2169,541.749422 C1618.51768,542.901574 1619.38377,545.152378 1619.33959,547.172087 C1619.20433,553.356589 1610.16671,566.575084 1608.79558,568.336543 C1585.78952,597.891892 1550.09574,637.823623 1525.7023,663.451967 C1500.16346,690.283704 1445.85501,741.806385 1421.95508,759.564409 C1360.48941,805.234362 1286.81603,843.056246 1218.06357,866.898831 C1179.0238,880.437388 1114.42349,899.663918 1069.28832,904.635926 C1042.86946,907.546179 993.598774,943.108406 989.832709,909.615472 L988.122399,907.975933 C987.718834,904.386886 993.48656,898.33026 1012.9653,888.722426 C1053.56014,868.699135 1094.27386,848.643007 1136.12931,833.421215 C1227.31877,800.257865 1319.81125,773.229442 1411.76267,743.689682 C1484.55362,720.305302 1559.02823,694.16394 1634.39813,691.700783 C1635.59045,691.661817 1637.78277,692.80145 1637.37598,694.232099 C1635.79593,699.789074 1632.64517,704.497936 1629.51898,708.860554 C1620.56819,721.351404 1610.98429,733.097644 1601.26848,744.620232 C1578.42196,771.715332 1554.71752,797.127374 1528.01599,818.022841 C1465.68766,866.79832 1401.13124,898.644893 1331.4085,926.653385 C1223.72595,969.910807 1106.27199,999.427469 992.862649,991.487187 C992.486177,991.460828 992.265919,990.493812 992.502355,990.119058 C993.594307,988.388302 995.046551,987.06424 996.465586,985.776495 C1000.79595,981.84678 1004.94046,977.432722 1009.727,974.488046 C1046.40907,951.921282 1082.96129,928.816799 1120.71482,909.338523 C1149.08019,894.703906 1178.22919,882.355828 1207.79303,872.29934 C1267.83183,851.876438 1444.78432,792.745669 1544.08162,772.464702 C1605.63478,759.892782 1667.35838,751.252569 1729.7631,754.485161 C1737.24672,754.872816 1759.97814,755.408542 1764.22541,769.191162 C1764.74787,770.886567 1764.32202,772.979353 1763.69148,774.613827 C1753.90932,799.97114 1726.60602,818.402421 1709.25241,829.870727 C1659.82209,862.537238 1592.92747,900.351625 1540.78255,923.601405 C1494.93865,944.041756 1322.23157,1011.71631 1274.27807,1025.01465 C1141.15579,1061.93179 1006.75091,1090.89686 873.2408,1125.45858 C836.179468,1135.05264 793.872297,1147.52481 757.651637,1165.49435 C753.149236,1167.72805 740.470992,1172.63696 745.045698,1174.61706 C756.407941,1179.53505 769.035304,1175.87876 781.031659,1175.61408 C908.626531,1172.79886 1036.21101,1169.21922 1163.78945,1165.37803 C1332.20801,1160.30722 1500.12516,1154.15861 1668.63472,1155.74574 C1775.6832,1156.754 1765.63133,1154.26644 1856.33905,1169.65967 C1865.68721,1171.24606 1898.40424,1175.28062 1913.70823,1183.68438 C1915.55011,1184.6958 1917.57057,1186.03517 1918.52227,1188.28727 C1919.0944,1189.64115 1918.27893,1191.52054 1917.52821,1192.724 C1915.84816,1195.41721 1913.6636,1197.56523 1911.47701,1199.58126 C1896.67486,1213.22877 1884.6055,1222.148 1867.55157,1232.11171 C1851.30706,1241.60251 1834.88768,1250.6485 1818.20869,1258.82069 C1710.49246,1311.59828 1595.93899,1333.11447 1482.76658,1357.16534 C1445.30754,1365.12595 1407.88579,1373.43508 1370.62842,1382.81083 C1370.30282,1382.89277 1338.79418,1391.27168 1329.57664,1398.08735 C1328.85888,1398.61808 1327.50397,1400.4752 1328.29174,1400.80699 C1368.11851,1417.58094 1403.80912,1412.38419 1448.02645,1410.97656 C1506.32551,1409.12066 1639.9385,1388.53132 1678.65783,1382.32894 C1836.47413,1357.04861 1993.78892,1326.60977 2151.82763,1303.70307 C2230.84773,1292.24961 2310.39057,1287.71787 2389.64318,1279.27615 C2391.09838,1279.12115 2392.82082,1279.1842 2393.89291,1277.9191 C2394.41642,1277.30134 2392.88739,1276.41776 2392.1826,1276.27956 C2385.85545,1275.03892 2379.46726,1274.24913 2373.07401,1273.83687 C2357.43787,1272.8286 2341.78242,1272.24364 2326.12731,1272.02008 C2299.3703,1271.63798 2272.59066,1273.31616 2245.85127,1272.02008 C2107.7832,1265.32783 1969.76489,1256.97223 1831.77397,1248.05844 C1783.1153,1244.91524 1734.51927,1240.3219 1685.92447,1235.85052 C1633.32542,1231.01069 1580.74742,1225.77982 1528.19831,1220.12535 C1488.79207,1215.8851 1449.37997,1211.6194 1410.06539,1206.16711 C1380.88497,1202.12026 1351.74149,1197.47422 1322.74843,1191.63282 C1298.10004,1186.66676 1273.6491,1180.18849 1249.20944,1173.75852 C1240.33967,1171.42491 1231.29066,1169.54359 1222.85157,1165.35034 C1211.31325,1159.61713 1198.06572,1155.71432 1189.62642,1144.15265 C1177.61617,1127.69886 1170.37531,1106.06968 1164.20618,1085.00738 C1161.97349,1077.38468 1163.68791,1068.54234 1165.16117,1060.62478 C1176.65156,998.87354 1212.09108,940.583271 1247.72052,898.210705 C1385.02464,734.920803 1562.53884,715.230893 1741.9827,700.302825 C1776.02074,697.471175 1810.19281,696.633468 1844.29309,697.688424 C2032.9429,703.524662 2093.10443,698.580379 2238.78864,727.327525 C2260.34393,731.580923 2279.47979,734.489399 2298.02006,748.763391 C2300.0921,750.35864 2301.83334,753.098571 2302.47815,756.074849 C2307.72564,780.295835 2278.11767,815.15315 2269.91281,826.791052 C2243.12468,864.787712 2214.98169,901.21194 2188.36489,939.404125 C2120.22434,1037.17831 2057.68072,1142.61489 1978.3918,1226.90506 C1935.90669,1272.06998 1886.94531,1302.87448 1830.84068,1301.21053 C1784.31825,1299.83076 1737.17108,1268.41928 1698.21353,1238.54801 C1660.64336,1209.74053 1616.2614,1172.81544 1593.75006,1123.20421 C1534.54054,992.71637 1689.38654,744.702338 1725.5698,675.637731 C1746.8854,634.951695 1772.22371,597.913884 1796.65618,560.188698 C1863.65732,456.734965 1896.62227,416.845526 1977.31526,316.362645 C2001.3695,286.409123 2113.5731,158.443424 2153.04742,93.0972984 C2164.38653,74.32644 2182.70457,36.9289583 2183.98493,9.55281035 C2184.12896,6.47319499 2185.3907,-1.69426165 2183.55518,0.313785882 C2179.34295,4.92194691 2178.45734,12.913972 2175.46377,18.8749196 C2172.50589,24.7647828 2169.3694,30.5582872 2165.73584,35.7965141 C2143.61579,67.6853243 2126.63938,88.1679125 2098.7516,113.63031 C2034.28804,172.487496 1966.37609,212.711538 1893.63596,256.796416 C1706.9164,369.959668 1503.4432,439.001648 1297.65375,462.796752 C1261.0397,467.030375 1224.20023,467.301292 1187.44295,468.202799 C1150.7128,469.103641 1113.94459,469.914242 1077.23215,468.202799 C1060.5961,467.427268 1043.958,464.91255 1027.63316,460.752867 C1013.8097,457.230551 1000.30402,451.637656 987.128336,445.243713 C981.475175,442.500328 976.212959,438.324513 971.488117,433.506607 C965.437498,427.336812 959.25861,420.844725 955.057856,412.541554 C950.406458,403.347646 947.143412,392.809747 945.468835,382.077145 C943.852452,371.71752 944.531405,360.898476 945.360312,350.388621 C945.689202,346.218578 947.271261,342.295549 948.893795,338.651515 C961.637703,310.030094 987.953454,286.012905 1013.67721,281.251029 C1037.29138,276.879669 1087.21193,267.836476 1079.7325,319.237377 C1078.2192,329.637208 1074.85238,339.543141 1071.23304,349.059264 C1035.75708,442.334268 964.362808,546.276788 910.390119,620.691015 C856.6392,694.799479 801.710386,767.507176 746.803758,840.223087 C727.323239,866.022225 707.417777,891.303429 687.242435,916.21794 C668.377496,939.514234 649.254678,962.48431 629.699624,984.834868 C616.091248,1000.38864 602.384248,1015.88148 587.784011,1029.8945 C574.760826,1042.3939 560.596358,1052.82977 546.970982,1064.2362 C545.86141,1065.16507 549.366145,1062.60779 550.23533,1061.32823 C565.255672,1039.21618 579.518433,1016.27788 594.555796,994.184672 C603.746579,980.681384 613.153969,967.404961 622.906135,954.558784 C641.082563,930.615629 659.117189,906.44102 678.32191,883.842582 C691.920207,867.841293 706.577512,853.347931 721.201201,838.893731 C748.162351,812.245059 775.087243,785.475389 803.048643,760.561426 C827.079648,739.149495 851.960171,719.292481 877.073804,700.009259 C893.906737,687.08428 911.066068,674.746697 928.812848,663.994788 C956.738802,647.075813 984.802475,630.204357 1013.95502,617.079598 C1046.73413,602.322128 1080.40128,590.767323 1114.22085,580.522307 C1134.2389,574.458207 1154.64209,569.603779 1175.18862,568.236841 C1204.26021,566.302741 1233.4751,567.82202 1262.50124,570.657377 C1274.31982,571.811849 1285.99504,575.503029 1297.27176,580.162273 C1304.01806,582.949671 1310.3108,587.573607 1316.09819,592.802233 C1319.69976,596.056082 1323.01639,600.253027 1325.04476,605.253868 C1338.01008,637.219241 1298.5785,701.390921 1285.70329,723.112359 C1263.48154,760.602086 1241.29966,798.153355 1218.10698,834.673025 C1163.33561,920.917179 1096.56318,998.800149 1029.46502,1069.02742 C939.10219,1163.60429 1024.52719,1071.8819 902.072978,1191.68267 C895.512509,1198.10098 889.608444,1205.60572 884.010543,1213.36779 C875.59253,1225.04024 892.332079,1223.12378 895.713577,1222.23016 C909.395526,1218.61446 922.981814,1214.16899 936.214062,1208.44363 C949.589827,1202.65617 962.607003,1195.49969 975.36453,1187.76661 C1007.62495,1168.21168 1039.39402,1147.35756 1071.19831,1126.62177 C1098.43271,1108.86546 1125.60681,1090.94326 1152.47276,1072.29542 C1499.1277,831.679701 1255.26447,1000.53275 1474.42773,842.732246 C1565.95479,776.831531 1657.20441,710.279267 1749.45771,646.048481 C1772.14934,630.249572 1795.55864,616.12554 1819.17237,602.705936 C1852.73021,583.635121 1886.70268,565.735891 1920.90108,548.617762 C1940.87132,538.621587 1961.16202,529.640666 1981.61708,521.393658 C2000.23735,513.886389 2019.01712,506.889686 2038.06164,501.381311 C2055.32147,496.389134 2072.83927,492.826111 2090.39105,489.932232 C2100.69618,488.233154 2111.1204,487.728724 2121.51087,487.622476 C2123.02581,487.606984 2098.32711,508.820733 2090.56468,514.818884 C2022.66687,567.28459 1953.65777,617.412236 1886.21738,670.829894 C1846.55385,702.246279 1808.17346,736.228294 1769.32595,769.263169 C1735.17045,798.308092 1701.01003,827.351188 1667.21091,857.067135 C1642.92318,878.420731 1618.7373,899.986743 1595.07837,922.460375 C1540.9865,973.842282 1487.98501,1027.07312 1433.98368,1078.60986 C1421.91713,1090.1257 1409.48698,1101.02555 1396.89947,1111.5945 C1391.94973,1115.7505 1386.42527,1118.69848 1381.41987,1122.74448 C1381.11917,1122.98754 1381.08419,1123.95597 1381.41987,1124.10707 C1391.44626,1128.62023 1405.97369,1130.62191 1415.54793,1131.86718 C1465.45719,1138.35862 1515.28563,1146.29139 1565.35197,1150.36185 C1599.55952,1153.14297 1633.89333,1152.41712 1668.17024,1152.40574 C1689.50986,1152.39865 1710.86085,1151.80919 1732.16795,1150.30646 C1773.9374,1147.36058 1838.84971,1129.05907 1884.97589,1147.25448 C1887.34078,1148.18736 1889.69074,1149.77802 1891.34397,1152.12879 C1907.32178,1174.84793 1923.271,1197.7005 1937.62652,1222.11938 C1944.95157,1234.57937 1953.57303,1266.32577 1955.57609,1280.54458 C1959.04649,1305.17938 1962.00907,1334.46241 1956.43559,1359.65788 C1948.86932,1393.8619 1914.99126,1393.54172 1893.61426,1389.87857 C1891.4452,1389.50689 1877.20303,1386.01463 1876.51116,1379.51514 C1876.43242,1378.77549 1876.8384,1377.98055 1877.29252,1377.51002 C1896.2304,1357.88799 1915.68027,1339.07749 1934.56185,1319.36731 C1944.14576,1309.36282 1953.48641,1298.97561 1962.67344,1288.38224 C2015.95701,1226.94206 2055.80736,1153.82633 2094.18498,1076.58259 C2108.4131,1047.94526 2125.3835,1012.35727 2136.4305,979.345735 C2137.1678,977.142501 2142.17845,960.777403 2140.95371,955.50595 C2138.82087,946.325931 2131.77385,943.201167 2125.35256,940.966118 C2096.77687,931.01983 2075.54222,930.798148 2043.85673,930.048782 C1943.1474,927.666992 1897.04474,930.778644 1791.75532,939.099481 C1438.00512,967.055736 1373.31553,969.150687 1077.03681,1007.63332 C1039.9253,1012.45361 641.068699,1068.09143 583.399714,1076.78753 C521.521451,1086.11837 459.960356,1098.91797 397.956982,1106.78113 C293.188483,1120.06769 160.665753,1136.49234 52.435326,1116.33587 C41.1223965,1114.22899 11.8534394,1108.27762 2.16784387,1089.40534 C-3.30948476,1078.73282 2.86090768,1062.82437 6.73011707,1054.5042 C25.7120141,1013.68641 71.0620607,966.111159 101.530768,941.226451 C151.775524,900.19005 202.955335,860.956937 254.972475,823.689221 C424.752557,702.05016 607.166267,613.034105 791.571335,535.05833 C919.983949,480.758992 1050.31695,433.466169 1181.95173,393.720088 C1256.63792,371.169183 1328.41573,353.643904 1405.24266,352.083549 C1412.93505,351.927317 1439.68346,351.64238 1440.65562,369.547964 C1443.36934,419.529741 1401.82718,509.973325 1397.38131,522.368519 C1380.88668,568.356029 1335.22399,652.79499 1316.56266,685.552512 C1262.23772,780.912854 1193.748,863.882076 1123.62322,940.14081 C1024.81246,1047.59473 922.553668,1144.18416 813.952953,1234.6541 C775.217521,1266.92269 736.334217,1298.91407 697.061523,1330.1074 C656.779926,1362.10208 616.086701,1393.25062 575.308299,1424.20366 C566.105962,1431.18873 557.351678,1439.79538 547.140277,1443.90582 C544.609427,1444.92457 548.733409,1437.40807 549.961854,1434.40646 C553.319112,1426.20328 557.029495,1418.23526 560.861824,1410.37835 C566.694117,1398.42119 572.597677,1386.50555 578.945963,1374.98425 C590.129398,1354.68778 601.048673,1334.07992 613.438658,1314.95828 C633.614571,1283.82051 655.043317,1254.02402 676.542146,1224.36267 C687.46923,1209.28687 698.885126,1194.77061 710.678889,1180.79856 C738.99633,1147.25094 767.297607,1113.62405 796.841173,1081.84462 C827.403136,1048.96973 858.349054,1016.53079 890.903873,986.934142 C1009.30924,879.287973 1137.37537,786.572139 1270.05005,710.981985 C1444.98795,611.312751 1605.09704,564.242529 1799.82069,500.234741 C1844.36785,485.591603 1889.86921,475.723927 1935.40833,467.421803 C1975.8612,460.046938 2016.71526,456.582804 2057.4958,453.258622 C2084.20552,451.081407 2111.00724,450.343037 2137.7675,450.92671 C2150.18286,451.197504 2162.59507,453.049808 2174.82132,455.817632 C2178.3108,456.607596 2181.89257,458.40425 2184.47545,461.500629 C2186.28622,463.671394 2187.32495,467.294336 2187.01921,470.440549 C2184.42476,497.138673 2157.11835,528.635062 2144.89524,544.358283 C2009.37055,718.690652 2045.6033,663.471382 1863.75763,881.9981 C1857.71685,889.257398 1852.92428,898.051295 1847.81789,906.397322 C1838.15514,922.190375 1836.24525,936.953064 1855.3146,935.914565 C1885.40461,934.275893 1914.04705,920.401761 1941.26418,904.807634 C1960.24781,893.930918 1979.08343,882.560339 1997.41791,870.000662 C2034.71503,844.450992 2070.46386,815.068279 2104.55102,783.077394 C2150.22374,740.213443 2174.58942,713.4773 2215.43466,661.125594 C2224.85263,649.054506 2234.04238,636.505991 2241.71006,622.563191 C2253.5647,601.006867 2264.29707,578.376406 2273.7979,554.998671 C2279.86378,540.07299 2284.43485,524.143779 2288.24872,508.050247 C2290.27727,499.490281 2290.75904,490.414397 2291.21789,481.490821 C2291.75124,471.118297 2292.3001,460.609037 2291.21789,450.306344 C2288.63111,425.680149 2269.26143,397.295606 2249.528,394.556475 C2246.8031,394.178241 2244.19778,398.967729 2243.19464,400.84876 C2233.29049,419.420578 2227.423,434.303987 2212.43945,447.337449 C2181.11011,474.58932 2144.80301,483.991428 2108.24946,495.482293 C2095.03932,499.634994 2081.57945,502.384387 2068.18306,505.413691 C2063.87852,506.387071 2059.53756,507.273819 2055.16908,507.48527 C2052.74052,507.602822 2050.13428,507.695892 2047.92848,506.394091 C2046.54364,505.576793 2045.86516,503.432994 2045.26752,501.641643 C2043.66092,496.826121 2042.36678,491.825331 2041.37374,486.747316 C2027.12555,413.88803 2016.6339,340.841476 1992.25225,272.08955 C1985.80623,253.912917 1979.28696,235.759411 1972.08449,218.051227 C1963.95565,198.065467 1955.32279,178.404227 1946.28225,159.066592 C1944.3623,154.959842 1942.04009,151.072805 1939.26737,147.855689 C1937.68311,146.017498 1935.42424,145.444385 1933.50268,144.238733" id="path-8"></path>
        <linearGradient x1="0.631009615%" y1="50%" x2="48.8850126%" y2="50%" id="linearGradient-10">
            <stop stop-color="#31261C" stop-opacity="0" offset="0%"></stop>
            <stop stop-color="#F8F3EC" offset="100%"></stop>
        </linearGradient>
    </defs>
    <g id="Page-1" stroke="none" stroke-width="1" fill="none" fill-rule="evenodd">
        <g id="Group">
            <g id="BG-Pattern">
                <mask id="mask-2" fill="white">
                    <use xlink:href="#path-1" transform="translate(1197, 722) scale(-1, 1) translate(-1197, -722)"></use>
                </mask>
                <g id="Path-3" transform="translate(1197, 722) scale(-1, 1) translate(-1197, -722)"></g>
                <rect id="Rectangle" fill-opacity="0.2" fill="url(#linearGradient-3)" mask="url(#mask-2)" x="337.752084" y="-0.120911064" width="1920" height="1329"></rect>
            </g>
            <g id="BG-Pattern-Copy" transform="translate(0, 1273)">
                <mask id="mask-5" fill="white">
                    <use xlink:href="#path-4" transform="translate(1197, 722) scale(-1, -1) translate(-1197, -722)"></use>
                </mask>
                <g id="Path-3" transform="translate(1197, 722) scale(-1, -1) translate(-1197, -722)"></g>
                <rect id="Rectangle" fill-opacity="0.2" fill="url(#linearGradient-3)" mask="url(#mask-5)" x="337.752084" y="-0.120911064" width="1920" height="1329"></rect>
            </g>
            <g id="BG-Pattern-Copy-2" transform="translate(1197, 2930) scale(1, -1) translate(-1197, -2930)translate(0, 2208)">
                <mask id="mask-7" fill="white">
                    <use xlink:href="#path-6" transform="translate(1197, 722) scale(1, -1) translate(-1197, -722)"></use>
                </mask>
                <g id="Path-3" transform="translate(1197, 722) scale(1, -1) translate(-1197, -722)"></g>
                <rect id="Rectangle" fill-opacity="0.2" fill="url(#linearGradient-3)" mask="url(#mask-7)" x="337.752084" y="-0.120911064" width="1920" height="1329"></rect>
            </g>
            <g id="BG-Pattern-Copy-3" transform="translate(0, 3142)">
                <mask id="mask-9" fill="white">
                    <use xlink:href="#path-8"></use>
                </mask>
                <g id="Path-3"></g>
                <rect id="Rectangle" fill-opacity="0.2" fill="url(#linearGradient-10)" mask="url(#mask-9)" x="337.752084" y="-0.120911064" width="1920" height="1171"></rect>
            </g>
        </g>
    </g>
</svg>