<?xml version="1.0" encoding="utf-8"?>
<!-- Generator: Adobe Illustrator 28.3.0, SVG Export Plug-In . SVG Version: 6.00 Build 0)  -->
<svg version="1.1" id="Layer_1" xmlns="http://www.w3.org/2000/svg" xmlns:xlink="http://www.w3.org/1999/xlink" x="0px" y="0px"
	 viewBox="0 0 924 558" style="enable-background:new 0 0 924 558;" xml:space="preserve">
<style type="text/css">
	.st0{fill:none;stroke:#31261C;stroke-width:2.5;}
</style>
<g id="Page-1" transform="translate(-0, 0)">
	<g id="About-_x2F_-Desktop-_x2F_-Light" transform="translate(-920, -208)">
		<g id="Graphics">
			<path id="Path-2" class="st0" d="M1076.4,334.5c20.1-33.4,43.3-71.5,66.6-101.8c6.4-8.3,12.5-27.3,21.9-22.7
				c12.4,5.9,7.7,26.3,12.3,39.2c2.1,5.9,6,11,7.8,17c6.4,22,10.2,44.6,16.5,66.6c3,10.4,12.7,19.6,11.5,30.3
				c-0.5,4.9-10,1.4-14.9,0.7c-40.4-6.1-81.1-31.4-120.7-21.3c-24.4,6.2-27.4,42.3-42,62.9c-8.5,11.9-20,21.7-27.1,34.5
				c-1.4,2.6,1.3,6.1,3.4,8c290.1,266.9-187.5-185.6,77.3,72.5c4.7,4.6,15.7,4.8,16.1,11.3c0.7,13.1-16.4,62.9-24,79.5
				c-4,8.8-10.4,16.4-13.9,25.4c-3.6,9.3-4.2,19.5-7.2,29.1c-1.2,3.9-5.3,7-5.1,11.1c0.1,2.6,3.1-4.4,5.3-5.8
				c7.9-4.8,17-7.3,24.7-12.4c24-16.2,38.1-29.1,51.7-54.6c5.7-10.6,4.8-25,13.1-33.8c5.3-5.5-2.3,15.2-2.6,22.8
				c-0.3,5.8-0.5,11.8,0.8,17.5c6.6,29.4,5.5,62.6,22.6,87.4c16.9,24.5,8-50.7,8.7-55.2c2.4-17,7.2-33.5,9.8-50.4
				c2.8-18.7,10.9-37.9,6.4-56.2c-1.6-6.4-12.6,4.9-19.2,4.6c-27-1.3-59.6,7.6-80.6-9.3c-12.5-10.1,7.6-31.3,10.5-47.1
				c4.7-25,7.2-50.5,12.3-75.4c3.7-17.7,1.3-39.6,14.1-52.3c7.2-7.2,5.4,19.7,9.1,29.3c5.5,14.4,11.3,28.8,18.6,42.4
				c8.3,15.5,19.5,29.3,28.1,44.7c3.9,6.9,5.4,14.9,9.1,21.9c2.2,4.3,6.5,7.5,8.5,11.9c2.4,5.4,3.8,11.2,4.4,17.1
				c0.4,3.4,1.5,8.4-1.4,10.3c-4.8,3.1-11.4,1.7-17.1,1.7c-0.5,0,0-1.2,0.3-1.6l18.3-19.9c12.4-17.1,22-36.1,34.8-52.9
				c16-21,38.7-37,51.4-60.2c2.6-4.7-9.6-5.1-14.7-6.9c-22.8-8.1-45.8-15.3-68.8-22.7c-1.5-0.5-3.5-1.9-4.8-0.9
				c-3,2.4-5.1,6-6.1,9.6c-4.8,17.4-5.9,35.6-11,52.9c-11.9,40.1-25.3,20.9,1.2,63.5c6,9.6,15.4,16.6,22.2,25.7
				c2.3,3,0.9,10.1,4.6,10.3c8.6,0.5,15.8-7.7,24.4-8.5c18.5-1.7,37.2,1.8,55.8,1.3c9.9-0.3,19.6-3,29.4-3.5
				c14.2-0.7,29.1-4.3,42.7-0.2c6.1,1.8,6.3,11.1,10.1,16.2c2.4,3.2,5.4,6.1,8.6,8.5c9.7,7.4,20.5,13.6,30.1,21.1
				c7.9,6.1,16.7,11.6,22.4,19.8c1.7,2.5-0.8,6.2-2.8,8.5c-18.9,22.6-24.7,8.2-32.4,47.6c-0.7,3.7,4.8,6,7.8,8.4
				c4.4,3.6,9.9,5.7,14,9.5c8.7,8.2,16.6,17.4,24.3,26.6c0.5,0.5,0.1,1.6-0.4,2.1c-3.8,3.6-7.9,7.1-12.4,9.8
				c-56.3,34.1,20.4-20.3-40.2,28.2c-2.6,2-5.3,4.8-8.6,4.7c-16.1-0.6-31.8-7.7-47.9-6.7c-10.5,0.7-0.2,14.2,1.6,14.6
				c18.3,3.9,37,6.1,55.6,8.1c13.5,1.5,27.8,6.6,40.8,2.4c7.1-2.3,6-14,11-19.5c69.4-75.3-38.2,64.7,44.6-42.6
				c0.9-1.2,1.2-2.9,0.8-4.4l-10.9-20.6c-1.7-5.9,33.6-70.4,37.9-72.9c5.2-3,2.8,11.7,5.4,17.1c5.9,12.5,13.8,24,19.9,36.4
				c1.3,2.6,3.8,5.9,2.4,8.5c-51.3,88.2,17.6-61.6-29.5,39.1c-3,6.4-4,13.7-7.3,20c-6.3,12-14,23.3-21.5,34.7
				c-0.9,1.4-2.1,3-3.7,3.5c0,0-32.9,3.9-11.7,10.4c5,1.5,10.2,3.5,15.4,3c7.8-0.7,17-1,22.6-6.5c8-7.8,9.7-20.3,15-30.2
				c23.8-43.9,18.7-16.1,50.6-91.6c1.5-3.5,2.6-7.9,1.1-11.4c-3.6-8.2-11.2-14.1-15.5-22c-4.7-8.6-1.3-22.3,1.4-30
				c7.9-22.3,8.3-50.7,26.4-65.9c5.8-4.9,89.6,17.6,92,18.1c10.1,1.9,21.6-1.8,30.6,3.1c10.6,5.7,16.9,17.2,24.6,26.4
				c7.3,8.8,9.1,24.5,20.1,27.6c9.4,2.7,18.3-8,25.5-14.6c13.9-12.8,25.2-28.1,36.9-42.9c6-7.6,12.4-15.1,16.1-24
				c0.8-2-2.2-3.9-4-5.2c-7.7-5.7-15.5-11.3-24.1-15.5c-254.1-126.5,4.5,12.8-160.4-84.3c-10-5.9-19.6-16.4-31.1-15.5
				c-11,0.8-17,14.2-26.5,19.8c-10.6,6.3-22.9,9.4-33.4,15.8c-4.4,2.7-5.7,11-10.9,11.1c-31.9,0.4-50-17.1-80.9-13
				c-2.3,0.3-1.3,4.8-0.7,7c2.5,10.1,4.8,20.5,9.8,29.7c25,45.9,71.4,66.2,20.2,85.8c-5.6,2.2-12,1.8-17.7,3.6
				c-7.3,2.3-13.9,6.6-21.3,8.9c-4.9,1.5-10.3,3.8-15.1,2.3c-3.2-1-3.1-6.1-5.3-8.6c-10.1-11.9-22-22.2-31.3-34.7
				c-84.4-113,7.8,4.5-59.3-128.6c-1.9-3.7-6.5,5.4-10.3,6.9c-5.8,2.2-12.4,2-18.3,4.1c-5.2,1.8-9.4,5.7-14.7,7.3
				c-1.8,0.5-4.9,0.6-5.5-1.2c-4.7-12.7-7.4-26.1-9.4-39.4c-4.5-31.1,3.4-65.2-10-93.6c-4.7-9.9-16.2,14.9-23.1,23.5
				c-36.7,46.1-22.2,29.6-41,77.6c-1.3,3.4-1.8,9.9-5.4,9.4c-46.9-6.5-92.4-20.8-138.9-29.2c-1.6-0.3-2.8,1.9-3.5,3.4
				c-4.1,9.4-7.4,19.2-10.5,29c-5.1,16.3,2.4,44.4-13.9,49.4c-38.2,11.8-80.8-17.5-119.7-8.2c-11.7,2.8,1.9,24.1,3.9,36
				c0.7,4.4-0.3,11.7,4.1,12.8c56.5,14.8,114.6,22.3,172,33.4"/>
		</g>
	</g>
</g>
</svg>
