<?xml version="1.0" encoding="UTF-8"?>
<svg width="924px" height="558px" viewBox="0 0 924 558" version="1.1" xmlns="http://www.w3.org/2000/svg"
    xmlns:xlink="http://www.w3.org/1999/xlink">
    <title>Path 2</title>
    <g id="Page-1" stroke="none" stroke-width="1" fill="none" fill-rule="evenodd">
        <g id="About-/-Desktop-/-Light" transform="translate(-920, -208)" stroke="#F8F3EC" stroke-width="2.5">
            <g id="Graphics">
                <path
                    d="M1076.43248,334.503683 C1096.49343,301.094361 1119.69347,263.038295 1143.01394,232.700931 C1149.43129,224.352662 1155.46754,205.404926 1164.95427,209.974164 C1177.30672,215.923661 1172.68156,236.299765 1177.29333,249.211431 C1179.39074,255.083619 1183.31083,260.246113 1185.04919,266.234422 C1191.42628,288.202201 1195.21307,310.866495 1201.57011,332.840086 C1204.57188,343.215935 1214.24474,352.39193 1213.08156,363.130454 C1212.54736,368.062191 1203.11975,364.555819 1198.21538,363.811113 C1157.82096,357.677409 1117.08579,332.420436 1077.50225,342.543365 C1053.08628,348.787401 1050.09498,384.86186 1035.51655,405.419024 C1027.05453,417.35139 1015.52976,427.156977 1008.42791,439.94568 C1007.01103,442.497141 1009.72567,446.018594 1011.87336,447.994683 C1301.95848,714.901813 824.38494,262.420894 1089.21703,520.508155 C1093.90439,525.076138 1104.90574,525.272291 1105.27565,531.806892 C1106.01657,544.89568 1088.87992,594.754788 1081.29233,611.34445 C1077.2752,620.127607 1070.89571,627.771522 1067.42164,636.783296 C1063.82898,646.102705 1063.18387,656.327753 1060.26843,665.880702 C1059.08251,669.766582 1055.00839,672.888816 1055.16369,676.948662 C1055.26352,679.558457 1058.23822,672.539496 1060.47134,671.185179 C1068.33869,666.413877 1077.49837,663.918725 1085.12819,658.776126 C1109.10875,642.612929 1123.19812,629.636247 1136.81486,604.186454 C1142.50766,593.546562 1141.56918,579.158533 1149.90731,570.435527 C1155.19254,564.906336 1147.63911,585.591261 1147.28598,593.232003 C1147.01621,599.069174 1146.77238,605.042507 1148.04431,610.745799 C1154.59496,640.118685 1153.58568,673.378851 1170.6833,698.144728 C1187.56789,722.602017 1178.7211,647.427727 1179.34257,642.973758 C1181.70805,626.020682 1186.5745,609.489122 1189.14098,592.565309 C1191.97018,573.909125 1200.05545,554.632633 1195.51698,536.317068 C1193.9361,529.937201 1182.89921,541.194923 1176.33391,540.880687 C1149.30252,539.586879 1116.77361,548.500246 1095.68615,531.538847 C1083.15715,521.461323 1103.2385,500.265152 1106.18675,484.458817 C1110.85803,459.414855 1113.36091,433.980183 1118.53589,409.035435 C1122.20297,391.359125 1119.86366,369.47113 1132.6795,356.756823 C1139.92702,349.56673 1138.0697,376.486796 1141.7432,386.011987 C1147.28928,400.392638 1153.01936,414.778687 1160.29634,428.365726 C1168.60437,443.877869 1179.7981,457.704788 1188.37106,473.072096 C1192.22218,479.975336 1193.81131,487.962923 1197.45677,494.97694 C1199.70642,499.305377 1203.96963,502.436582 1205.94997,506.894672 C1208.33827,512.271132 1209.70386,518.139984 1210.34391,523.988112 C1210.72115,527.434943 1211.85683,532.407686 1208.94895,534.296392 C1204.1544,537.410521 1197.59749,535.949469 1191.88045,535.980395 C1191.3394,535.983321 1191.87179,534.82452 1192.19016,534.387047 L1210.44439,514.45654 C1222.87002,497.382421 1232.4304,478.306656 1245.22703,461.508802 C1261.2103,440.527929 1283.94282,424.472448 1296.61587,401.341177 C1299.20886,396.608369 1287.04674,396.265425 1281.96061,394.46144 C1259.18548,386.383386 1236.12773,379.121797 1213.12173,371.726851 C1211.57642,371.230137 1209.61022,369.78504 1208.34168,370.797705 C1205.36722,373.172196 1203.22256,376.762769 1202.21558,380.433142 C1197.44914,397.806511 1196.30079,416.068054 1191.18269,433.341097 C1179.28952,473.479344 1165.87067,454.230788 1192.39549,496.80663 C1198.37721,506.408084 1207.82599,513.413258 1214.58499,522.484361 C1216.83796,525.508031 1215.45452,532.568325 1219.21786,532.804379 C1227.82065,533.343984 1235.05536,525.073605 1243.64089,524.306878 C1262.16867,522.652263 1280.83418,526.121534 1299.42949,525.641113 C1309.30437,525.38599 1318.9875,522.618444 1328.85234,522.105391 C1343.05452,521.366761 1357.90554,517.768342 1371.51593,521.892028 C1377.61477,523.73986 1377.8011,533.024066 1381.65095,538.102353 C1384.08784,541.316819 1387.05091,544.161496 1390.25558,546.611244 C1400.00137,554.06121 1410.71801,560.189204 1420.39934,567.722747 C1428.25725,573.837396 1437.11867,579.309237 1442.79127,587.491982 C1444.4968,589.95221 1441.94683,593.739353 1440.02792,596.037027 C1421.16929,618.617978 1415.29086,604.205237 1407.64242,643.59337 C1406.9156,647.336363 1412.45899,649.574046 1415.40392,651.995959 C1419.77508,655.590808 1425.33631,657.646215 1429.45271,661.530181 C1438.18846,669.772648 1446.05155,678.919632 1453.7284,688.156381 C1454.18262,688.702906 1453.8421,689.765295 1453.32161,690.249136 C1449.47261,693.827118 1445.45187,697.307692 1440.9563,700.029186 C1384.64281,734.119819 1461.386,679.693532 1400.74543,728.253802 C1398.19478,730.296334 1395.40023,733.054044 1392.13457,732.939195 C1376.03513,732.373002 1360.3445,725.221445 1344.26912,726.267613 C1333.7826,726.950063 1344.07243,740.490554 1345.8955,740.881612 C1364.19956,744.807936 1382.85426,746.987934 1401.46433,749.017674 C1414.99465,750.493382 1429.30451,755.660549 1442.22713,751.388193 C1449.31105,749.046175 1448.18245,737.387751 1453.23808,731.900725 C1522.59296,656.627939 1415.06355,796.555533 1497.84711,689.344688 C1498.75359,688.170734 1499.09529,686.405329 1498.69614,684.976854 L1487.76132,664.374355 C1486.10513,658.447329 1521.31189,594.021757 1525.7111,591.451022 C1530.87331,588.434424 1528.53677,603.15585 1531.08865,608.562898 C1536.99624,621.080184 1544.84098,632.606681 1550.9877,645.00829 C1552.28677,647.629299 1554.81433,650.934234 1553.34254,653.462298 C1502.01511,741.626193 1570.97766,591.854004 1523.83667,692.594916 C1520.8334,699.012948 1519.8253,706.286372 1516.51841,712.553373 C1510.17239,724.579963 1502.50719,735.872402 1495.01326,747.219288 C1494.08204,748.629295 1492.9382,750.191766 1491.3261,750.698151 C1491.31216,750.702529 1458.4139,754.613978 1479.61018,761.073347 C1484.59779,762.593275 1489.7731,764.538455 1494.96498,764.058018 C1502.78194,763.334664 1511.97991,763.037641 1517.60125,757.557793 C1525.64723,749.71433 1527.25214,737.251279 1532.60081,727.369498 C1556.38012,683.436658 1551.30715,711.240845 1583.20491,635.730599 C1584.69558,632.201792 1585.78048,627.80357 1584.26113,624.287016 C1580.70766,616.062465 1573.05404,610.190773 1568.7704,602.321794 C1564.07173,593.690414 1567.44321,579.984445 1570.1648,572.294201 C1578.05456,550.000545 1578.41732,521.625708 1596.54071,506.433667 C1602.33435,501.577116 1686.09781,524.028473 1688.54202,524.48967 C1698.61457,526.390248 1710.09916,522.739673 1719.13782,527.574027 C1729.75714,533.253799 1736.07723,544.739788 1743.75304,554.019427 C1751.00768,562.789901 1752.90227,578.505768 1763.84817,581.626413 C1773.2732,584.313462 1782.15754,573.66243 1789.36739,567.023947 C1803.23291,554.257247 1814.54844,538.941176 1826.25241,524.167602 C1832.24095,516.60844 1838.66553,509.042629 1842.35904,500.13412 C1843.19662,498.11394 1840.13739,496.218952 1838.37936,494.918175 C1830.69767,489.234415 1822.84944,483.627932 1814.29505,479.369295 C1560.19404,352.87 1818.75039,492.185332 1653.93396,395.10366 C1643.94199,389.218101 1634.35483,378.726508 1622.79109,379.597715 C1611.79351,380.426267 1605.7966,393.805673 1596.31831,399.444395 C1585.73487,405.740581 1573.44235,408.835722 1562.91201,415.220325 C1558.47127,417.912771 1557.17673,426.253819 1551.984,426.324536 C1520.06028,426.759293 1501.96954,409.216392 1471.04249,413.330566 C1468.70546,413.641459 1469.78156,418.081001 1470.34888,420.369352 C1472.85563,430.480662 1475.17153,440.893046 1480.14497,450.046584 C1505.1041,495.983449 1551.51015,516.236603 1500.38043,535.801908 C1494.7451,537.958326 1488.39222,537.58838 1482.64618,539.429611 C1475.32462,541.775693 1468.70683,546.047314 1461.35787,548.306092 C1456.4763,549.806492 1451.09331,552.134867 1446.2139,550.62744 C1442.9988,549.634175 1443.13504,544.575586 1440.96305,542.005381 C1430.90873,530.107686 1418.95033,519.816043 1409.62941,507.335465 C1325.21947,394.31185 1417.4365,511.795494 1350.29551,378.778475 C1348.43003,375.082664 1343.84156,384.206381 1339.97674,385.690363 C1334.15175,387.926996 1327.60325,387.721505 1321.70479,389.756506 C1316.54095,391.538062 1312.25921,395.46755 1307.03279,397.056206 C1305.22978,397.604262 1302.14791,397.667629 1301.49923,395.898324 C1296.84758,383.21071 1294.08886,369.824744 1292.14601,356.451687 C1287.63286,325.386816 1295.55268,291.20174 1282.16386,262.809237 C1277.47814,252.872646 1265.92793,277.742545 1259.0812,286.33406 C1222.34946,332.426349 1236.8749,315.979934 1218.12054,363.912494 C1216.80604,367.272115 1216.30027,373.787312 1212.72635,373.295322 C1165.84588,366.841701 1120.36535,352.501839 1073.80439,344.045761 C1072.21158,343.756485 1070.96445,345.946348 1070.3242,347.433231 C1066.2646,356.861069 1062.9231,366.598541 1059.87291,376.399605 C1054.78815,392.738283 1062.28509,420.7614 1045.9339,425.805764 C1007.70876,437.598266 965.103079,408.305278 926.203864,417.636674 C914.479027,420.449305 928.123439,441.701769 930.05531,453.603474 C930.774426,458.033739 929.784399,465.297781 934.125301,466.438369 C990.599413,481.277161 1048.76281,488.71616 1106.08157,499.855055"
                    id="Path-2"></path>
            </g>
        </g>
    </g>
</svg>